<svg width="138" height="31" viewBox="0 0 138 31" fill="none" xmlns="http://www.w3.org/2000/svg">
<g opacity="0.6">
<path d="M33.6487 7.29224H36.814V22.6092H33.6487V7.29224Z" fill="#1D2130"/>
<path d="M38.5866 17.3622C38.5866 16.2602 38.9123 15.183 39.5224 14.2672C40.1325 13.3514 40.9995 12.6381 42.0135 12.2179C43.0275 11.7976 44.1429 11.6893 45.2183 11.9066C46.2937 12.1239 47.2807 12.6571 48.0541 13.4386C48.8275 14.22 49.3526 15.2146 49.5627 16.2962C49.7729 17.3778 49.6586 18.4977 49.2345 19.514C48.8104 20.5303 48.0955 21.3972 47.1804 22.0049C46.2653 22.6125 45.1912 22.9335 44.0943 22.9272C43.3668 22.9329 42.6454 22.7927 41.9725 22.5146C41.2997 22.2366 40.6888 21.8264 40.1759 21.308C39.6629 20.7897 39.2581 20.1737 38.9852 19.4961C38.7123 18.8186 38.5768 18.0931 38.5866 17.3622ZM46.5211 17.3622C46.5086 16.8871 46.357 16.4263 46.0852 16.0373C45.8134 15.6483 45.4335 15.3485 44.993 15.1752C44.5525 15.002 44.0709 14.9632 43.6085 15.0635C43.1461 15.1638 42.7234 15.3988 42.3932 15.7392C42.0631 16.0796 41.8402 16.5102 41.7524 16.9772C41.6646 17.4442 41.7158 17.9269 41.8996 18.3648C42.0834 18.8027 42.3916 19.1765 42.7857 19.4393C43.1798 19.7022 43.6423 19.8425 44.1154 19.8426C44.4375 19.8489 44.7574 19.7884 45.0552 19.6649C45.3529 19.5413 45.6221 19.3574 45.8459 19.1246C46.0697 18.8919 46.2433 18.6152 46.3558 18.3119C46.4684 18.0087 46.5174 17.6854 46.5 17.3622H46.5211Z" fill="#1D2130"/>
<path d="M62.1262 12.1152V22.0898C62.1262 25.609 59.3829 27.1036 56.608 27.1036C55.6292 27.1843 54.6474 26.989 53.7732 26.5395C52.8989 26.0901 52.1669 25.4044 51.6595 24.5596L54.3289 23.012C54.5453 23.4502 54.8894 23.8117 55.3154 24.0484C55.7414 24.2851 56.2291 24.3858 56.7135 24.337C57.0221 24.3752 57.3353 24.3444 57.6306 24.2469C57.926 24.1493 58.1963 23.9874 58.4221 23.7727C58.6479 23.558 58.8237 23.2958 58.9369 23.0049C59.0501 22.7139 59.0979 22.4015 59.077 22.0898V21.1252C58.7086 21.5739 58.2412 21.9301 57.7119 22.1657C57.1826 22.4012 56.6059 22.5095 56.0277 22.482C54.6285 22.482 53.2866 21.9236 52.2973 20.9297C51.3079 19.9358 50.7521 18.5877 50.7521 17.182C50.7521 15.7764 51.3079 14.4283 52.2973 13.4344C53.2866 12.4404 54.6285 11.882 56.0277 11.882C56.6059 11.8546 57.1826 11.9629 57.7119 12.1984C58.2412 12.4339 58.7086 12.7902 59.077 13.2388V12.1788L62.1262 12.1152ZM59.077 17.1502C59.098 16.6431 58.9676 16.1412 58.7024 15.7092C58.4373 15.2771 58.0495 14.9346 57.5891 14.7257C57.1286 14.5168 56.6165 14.451 56.1185 14.5369C55.6206 14.6228 55.1596 14.8563 54.7948 15.2075C54.43 15.5587 54.1781 16.0115 54.0716 16.5076C53.965 17.0038 54.0086 17.5206 54.1968 17.9917C54.3849 18.4628 54.7091 18.8665 55.1275 19.151C55.5459 19.4355 56.0394 19.5878 56.5447 19.5882C56.8744 19.6121 57.2053 19.5662 57.5163 19.4536C57.8272 19.3409 58.1112 19.164 58.3498 18.9343C58.5884 18.7045 58.7765 18.427 58.9017 18.1197C59.027 17.8124 59.0867 17.4821 59.077 17.1502Z" fill="#1D2130"/>
<path d="M63.9093 17.3622C63.9093 16.2611 64.2345 15.1848 64.8436 14.2694C65.4528 13.354 66.3185 12.6407 67.3313 12.2198C68.3441 11.7989 69.4584 11.6894 70.5332 11.9049C71.6081 12.1205 72.5951 12.6516 73.3693 13.4309C74.1436 14.2103 74.6703 15.2029 74.8829 16.2831C75.0954 17.3633 74.9842 18.4825 74.5633 19.4992C74.1425 20.5159 73.4308 21.3843 72.5185 21.9945C71.6062 22.6047 70.5342 22.9293 69.4381 22.9272C68.7092 22.9343 67.9862 22.7952 67.3116 22.5179C66.6369 22.2406 66.0241 21.8308 65.5092 21.3125C64.9942 20.7941 64.5875 20.1777 64.3127 19.4994C64.038 18.8211 63.9009 18.0945 63.9093 17.3622ZM71.8438 17.3622C71.8313 16.8867 71.6795 16.4254 71.4072 16.0362C71.1349 15.647 70.7544 15.3472 70.3132 15.1743C69.8721 15.0014 69.39 14.9632 68.9273 15.0643C68.4646 15.1655 68.042 15.4016 67.7123 15.743C67.3826 16.0845 67.1605 16.5161 67.0739 16.9838C66.9873 17.4514 67.04 17.9344 67.2254 18.3721C67.4108 18.8099 67.7206 19.1829 68.1161 19.4445C68.5116 19.706 68.9752 19.8445 69.4487 19.8426C69.7708 19.8489 70.0907 19.7884 70.3884 19.6649C70.6862 19.5414 70.9554 19.3574 71.1792 19.1247C71.403 18.8919 71.5766 18.6152 71.6891 18.3119C71.8016 18.0087 71.8507 17.6854 71.8332 17.3622H71.8438Z" fill="#1D2130"/>
<path d="M76.4336 9.30618C76.4336 8.93301 76.5437 8.56821 76.7501 8.25793C76.9565 7.94765 77.2498 7.70581 77.593 7.563C77.9362 7.4202 78.3138 7.38283 78.6781 7.45564C79.0424 7.52844 79.3771 7.70814 79.6397 7.97201C79.9024 8.23589 80.0812 8.57208 80.1537 8.93808C80.2262 9.30409 80.189 9.68346 80.0468 10.0282C79.9047 10.373 79.664 10.6677 79.3551 10.875C79.0463 11.0823 78.6831 11.193 78.3117 11.193C77.8153 11.1875 77.3408 10.9869 76.9897 10.6343C76.6387 10.2816 76.4391 9.80488 76.4336 9.30618ZM76.7396 12.1152H79.9049V22.6092H76.7396V12.1152Z" fill="#1D2130"/>
<path d="M93.4525 17.3623C93.488 18.0602 93.3857 18.7582 93.1516 19.4163C92.9175 20.0743 92.5562 20.6794 92.0884 21.1966C91.6207 21.7138 91.0557 22.133 90.4261 22.43C89.7964 22.727 89.1145 22.896 88.4196 22.9273C87.8299 22.9667 87.239 22.8718 86.6909 22.6497C86.1428 22.4276 85.6517 22.0841 85.2543 21.6447V26.8281H82.089V12.1153H85.2543V13.1011C85.6523 12.663 86.1437 12.321 86.6919 12.1007C87.24 11.8804 87.8307 11.7876 88.4196 11.8291C89.1117 11.8604 89.7909 12.0283 90.4184 12.3233C91.0459 12.6184 91.6094 13.0347 92.0768 13.5485C92.5441 14.0623 92.9062 14.6635 93.1422 15.3179C93.3783 15.9723 93.4837 16.667 93.4525 17.3623ZM90.2872 17.3623C90.2747 16.8699 90.1179 16.3923 89.8363 15.9891C89.5548 15.586 89.1611 15.2753 88.7045 15.096C88.2479 14.9167 87.7489 14.8767 87.2698 14.9812C86.7907 15.0856 86.353 15.3298 86.0115 15.6831C85.67 16.0364 85.4399 16.4832 85.35 16.9673C85.2602 17.4514 85.3146 17.9514 85.5064 18.4046C85.6982 18.8579 86.0188 19.2441 86.4282 19.515C86.8376 19.7859 87.3175 19.9294 87.8077 19.9275C88.1434 19.9418 88.4784 19.8846 88.7907 19.7598C89.1029 19.6349 89.3853 19.4451 89.6195 19.2029C89.8536 18.9607 90.0341 18.6715 90.1492 18.3543C90.2643 18.0371 90.3113 17.699 90.2872 17.3623Z" fill="#1D2130"/>
<path d="M103.086 19.461C103.086 21.8778 100.975 22.906 98.7386 22.906C97.8263 22.9885 96.9103 22.7942 96.1091 22.3483C95.3078 21.9023 94.6581 21.2252 94.2439 20.4044L96.966 18.8568C97.0739 19.235 97.3077 19.5646 97.6285 19.7904C97.9492 20.0161 98.3374 20.1244 98.7281 20.097C99.4772 20.097 99.8571 19.8638 99.8571 19.4398C99.8571 18.2844 94.7187 18.8992 94.7187 15.2634C94.7187 12.9738 96.639 11.829 98.8125 11.829C99.6387 11.7918 100.459 11.9802 101.188 12.374C101.916 12.7678 102.524 13.3523 102.949 14.0656L100.226 15.5072C100.106 15.2338 99.9096 15.0011 99.6606 14.8375C99.4115 14.6738 99.1206 14.5861 98.823 14.585C98.2744 14.585 97.9473 14.797 97.9473 15.168C97.9473 16.3764 103.086 15.5814 103.086 19.461Z" fill="#1D2130"/>
<path d="M114.555 12.1153V22.6093H111.389V21.6235C111.03 22.0598 110.573 22.4052 110.056 22.6316C109.54 22.8581 108.977 22.9594 108.414 22.9273C106.304 22.9273 104.5 21.4115 104.5 18.5813V12.1153H107.665V18.1043C107.64 18.3547 107.669 18.6075 107.751 18.8453C107.833 19.0831 107.966 19.3002 108.139 19.4816C108.313 19.663 108.523 19.8044 108.757 19.8961C108.99 19.9877 109.24 20.0273 109.49 20.0123C110.63 20.0123 111.432 19.3339 111.432 17.8923V12.1153H114.555Z" fill="#1D2130"/>
<path d="M132.492 16.1644V22.6092H129.326V16.44C129.326 15.38 128.83 14.7228 127.828 14.7228C126.826 14.7228 126.193 15.4542 126.193 16.6944V22.6092H123.027V16.44C123.027 15.38 122.531 14.7228 121.529 14.7228C120.527 14.7228 119.894 15.4542 119.894 16.6944V22.6092H116.728V12.1152H119.894V13.0798C120.221 12.6536 120.649 12.3162 121.139 12.0978C121.629 11.8794 122.166 11.7871 122.7 11.829C123.236 11.801 123.769 11.9132 124.248 12.1548C124.727 12.3964 125.135 12.759 125.433 13.207C125.781 12.739 126.241 12.3671 126.77 12.1261C127.3 11.8851 127.882 11.7829 128.461 11.829C130.93 11.829 132.492 13.5462 132.492 16.1644Z" fill="#1D2130"/>
<path d="M14.7938 4.53625V0.03125H0.655273V30.9832H14.7938V26.4782C11.8975 26.4782 9.11987 25.3224 7.07189 23.2649C5.02391 21.2075 3.87337 18.4169 3.87337 15.5072C3.87337 12.5976 5.02391 9.80704 7.07189 7.74958C9.11987 5.69212 11.8975 4.53625 14.7938 4.53625Z" fill="#1D2130"/>
<path d="M14.7938 4.53625V26.4782C17.6901 26.4782 20.4677 25.3224 22.5156 23.2649C24.5636 21.2075 25.7142 18.4169 25.7142 15.5073C25.7142 12.5976 24.5636 9.80704 22.5156 7.74958C20.4677 5.69212 17.6901 4.53625 14.7938 4.53625Z" fill="#1D2130"/>
<path d="M135.151 12.0516C136.433 12.0516 137.472 11.0076 137.472 9.71962C137.472 8.43169 136.433 7.38762 135.151 7.38762C133.869 7.38762 132.829 8.43169 132.829 9.71962C132.829 11.0076 133.869 12.0516 135.151 12.0516Z" fill="#1D2130"/>
</g>
</svg>
