<svg width="137" height="31" viewBox="0 0 137 31" fill="none" xmlns="http://www.w3.org/2000/svg">
<g opacity="0.6">
<path d="M33.177 7.29224H36.3423V22.6092H33.177V7.29224Z" fill="#1D2130"/>
<path d="M38.1149 17.3622C38.115 16.2602 38.4406 15.183 39.0507 14.2672C39.6608 13.3514 40.5278 12.6381 41.5418 12.2179C42.5559 11.7976 43.6713 11.6893 44.7467 11.9066C45.822 12.1239 46.809 12.6571 47.5824 13.4386C48.3558 14.22 48.8809 15.2146 49.091 16.2962C49.3012 17.3778 49.187 18.4977 48.7628 19.514C48.3387 20.5303 47.6238 21.3972 46.7087 22.0049C45.7936 22.6125 44.7195 22.9335 43.6226 22.9272C42.8951 22.9329 42.1737 22.7927 41.5009 22.5146C40.828 22.2366 40.2172 21.8264 39.7042 21.308C39.1912 20.7897 38.7864 20.1737 38.5135 19.4961C38.2406 18.8186 38.1051 18.0931 38.1149 17.3622ZM46.0494 17.3622C46.0369 16.8871 45.8853 16.4263 45.6135 16.0373C45.3418 15.6483 44.9618 15.3485 44.5213 15.1752C44.0808 15.002 43.5992 14.9632 43.1368 15.0635C42.6744 15.1638 42.2517 15.3988 41.9216 15.7392C41.5914 16.0796 41.3685 16.5102 41.2807 16.9772C41.1929 17.4442 41.2441 17.9269 41.4279 18.3648C41.6117 18.8027 41.9199 19.1765 42.314 19.4393C42.7082 19.7022 43.1707 19.8425 43.6437 19.8426C43.9658 19.8489 44.2857 19.7884 44.5835 19.6649C44.8812 19.5413 45.1504 19.3574 45.3742 19.1246C45.598 18.8919 45.7716 18.6152 45.8842 18.3119C45.9967 18.0087 46.0458 17.6854 46.0283 17.3622H46.0494Z" fill="#1D2130"/>
<path d="M61.6546 12.1152V22.0898C61.6546 25.609 58.9113 27.1036 56.1363 27.1036C55.1575 27.1843 54.1757 26.989 53.3015 26.5395C52.4272 26.0901 51.6952 25.4044 51.1878 24.5596L53.8573 23.012C54.0736 23.4502 54.4177 23.8117 54.8437 24.0484C55.2697 24.2851 55.7574 24.3858 56.2418 24.337C56.5504 24.3752 56.8636 24.3444 57.159 24.2469C57.4543 24.1493 57.7246 23.9874 57.9504 23.7727C58.1762 23.558 58.352 23.2958 58.4652 23.0049C58.5784 22.7139 58.6263 22.4015 58.6053 22.0898V21.1252C58.2369 21.5739 57.7696 21.9301 57.2402 22.1657C56.7109 22.4012 56.1343 22.5095 55.556 22.482C54.1568 22.482 52.815 21.9236 51.8256 20.9297C50.8362 19.9358 50.2804 18.5877 50.2804 17.182C50.2804 15.7764 50.8362 14.4283 51.8256 13.4344C52.815 12.4404 54.1568 11.882 55.556 11.882C56.1343 11.8546 56.7109 11.9629 57.2402 12.1984C57.7696 12.4339 58.2369 12.7902 58.6053 13.2388V12.1788L61.6546 12.1152ZM58.6053 17.1502C58.6263 16.6431 58.4959 16.1412 58.2307 15.7092C57.9656 15.2771 57.5779 14.9346 57.1174 14.7257C56.6569 14.5168 56.1448 14.451 55.6468 14.5369C55.1489 14.6228 54.6879 14.8563 54.3231 15.2075C53.9583 15.5587 53.7065 16.0115 53.5999 16.5076C53.4933 17.0038 53.5369 17.5206 53.7251 17.9917C53.9133 18.4628 54.2374 18.8665 54.6558 19.151C55.0742 19.4355 55.5678 19.5878 56.073 19.5882C56.4027 19.6121 56.7337 19.5662 57.0446 19.4536C57.3555 19.3409 57.6395 19.164 57.8781 18.9343C58.1168 18.7045 58.3048 18.427 58.43 18.1197C58.5553 17.8124 58.615 17.4821 58.6053 17.1502Z" fill="#1D2130"/>
<path d="M63.4377 17.3622C63.4377 16.2611 63.7628 15.1848 64.3719 14.2694C64.9811 13.354 65.8468 12.6407 66.8596 12.2198C67.8724 11.7989 68.9868 11.6894 70.0616 11.9049C71.1364 12.1205 72.1234 12.6516 72.8976 13.4309C73.6719 14.2103 74.1986 15.2029 74.4112 16.2831C74.6237 17.3633 74.5125 18.4825 74.0917 19.4992C73.6708 20.5159 72.9591 21.3843 72.0468 21.9945C71.1345 22.6047 70.0625 22.9293 68.9664 22.9272C68.2375 22.9343 67.5146 22.7952 66.8399 22.5179C66.1652 22.2406 65.5524 21.8308 65.0375 21.3125C64.5225 20.7941 64.1158 20.1777 63.8411 19.4994C63.5663 18.8211 63.4292 18.0945 63.4377 17.3622ZM71.3721 17.3622C71.3596 16.8867 71.2078 16.4254 70.9355 16.0362C70.6632 15.647 70.2827 15.3472 69.8416 15.1743C69.4004 15.0014 68.9183 14.9632 68.4556 15.0643C67.993 15.1655 67.5703 15.4016 67.2406 15.743C66.9109 16.0845 66.6888 16.5161 66.6022 16.9838C66.5156 17.4514 66.5683 17.9344 66.7537 18.3721C66.9391 18.8099 67.249 19.1829 67.6445 19.4445C68.04 19.706 68.5035 19.8445 68.977 19.8426C69.2991 19.8489 69.619 19.7884 69.9168 19.6649C70.2145 19.5414 70.4837 19.3574 70.7075 19.1247C70.9313 18.8919 71.1049 18.6152 71.2174 18.3119C71.33 18.0087 71.379 17.6854 71.3616 17.3622H71.3721Z" fill="#1D2130"/>
<path d="M75.9619 9.30618C75.9619 8.93301 76.0721 8.56821 76.2784 8.25793C76.4848 7.94765 76.7781 7.70581 77.1213 7.563C77.4645 7.4202 77.8421 7.38283 78.2064 7.45564C78.5707 7.52844 78.9054 7.70814 79.168 7.97201C79.4307 8.23589 79.6096 8.57208 79.682 8.93808C79.7545 9.30409 79.7173 9.68346 79.5751 10.0282C79.433 10.373 79.1923 10.6677 78.8834 10.875C78.5746 11.0823 78.2115 11.193 77.84 11.193C77.3436 11.1875 76.8691 10.9869 76.5181 10.6343C76.167 10.2816 75.9674 9.80488 75.9619 9.30618ZM76.2679 12.1152H79.4332V22.6092H76.2679V12.1152Z" fill="#1D2130"/>
<path d="M92.9809 17.3623C93.0163 18.0602 92.9141 18.7582 92.68 19.4163C92.4459 20.0743 92.0845 20.6794 91.6168 21.1966C91.149 21.7138 90.584 22.133 89.9544 22.43C89.3248 22.727 88.6429 22.896 87.948 22.9273C87.3583 22.9667 86.7673 22.8718 86.2192 22.6497C85.6712 22.4276 85.1801 22.0841 84.7826 21.6447V26.8281H81.6173V12.1153H84.7826V13.1011C85.1806 12.663 85.672 12.321 86.2202 12.1007C86.7684 11.8804 87.359 11.7876 87.948 11.8291C88.6401 11.8604 89.3193 12.0283 89.9468 12.3233C90.5742 12.6184 91.1378 13.0347 91.6051 13.5485C92.0724 14.0623 92.4345 14.6635 92.6705 15.3179C92.9066 15.9723 93.012 16.667 92.9809 17.3623ZM89.8155 17.3623C89.803 16.8699 89.6462 16.3923 89.3647 15.9891C89.0831 15.586 88.6894 15.2753 88.2328 15.096C87.7763 14.9167 87.2772 14.8767 86.7981 14.9812C86.3191 15.0856 85.8814 15.3298 85.5399 15.6831C85.1983 16.0364 84.9682 16.4832 84.8784 16.9673C84.7885 17.4514 84.8429 17.9514 85.0347 18.4046C85.2265 18.8579 85.5471 19.2441 85.9565 19.515C86.3659 19.7859 86.8458 19.9294 87.336 19.9275C87.6718 19.9418 88.0067 19.8846 88.319 19.7598C88.6312 19.6349 88.9137 19.4451 89.1478 19.2029C89.3819 18.9607 89.5624 18.6715 89.6775 18.3543C89.7926 18.0371 89.8396 17.699 89.8155 17.3623Z" fill="#1D2130"/>
<path d="M102.614 19.461C102.614 21.8778 100.504 22.906 98.267 22.906C97.3546 22.9885 96.4387 22.7942 95.6374 22.3483C94.8361 21.9023 94.1864 21.2252 93.7722 20.4044L96.4944 18.8568C96.6022 19.235 96.8361 19.5646 97.1568 19.7904C97.4775 20.0161 97.8657 20.1244 98.2564 20.097C99.0055 20.097 99.3854 19.8638 99.3854 19.4398C99.3854 18.2844 94.247 18.8992 94.247 15.2634C94.247 12.9738 96.1673 11.829 98.3408 11.829C99.167 11.7918 99.9878 11.9802 100.716 12.374C101.444 12.7678 102.053 13.3523 102.477 14.0656L99.7547 15.5072C99.6344 15.2338 99.4379 15.0011 99.1889 14.8375C98.9398 14.6738 98.6489 14.5861 98.3514 14.585C97.8027 14.585 97.4756 14.797 97.4756 15.168C97.4756 16.3764 102.614 15.5814 102.614 19.461Z" fill="#1D2130"/>
<path d="M114.083 12.1153V22.6093H110.918V21.6235C110.558 22.0598 110.102 22.4052 109.585 22.6316C109.068 22.8581 108.505 22.9594 107.942 22.9273C105.832 22.9273 104.028 21.4115 104.028 18.5813V12.1153H107.193V18.1043C107.168 18.3547 107.198 18.6075 107.28 18.8453C107.362 19.0831 107.494 19.3002 107.667 19.4816C107.841 19.663 108.052 19.8044 108.285 19.8961C108.518 19.9877 108.768 20.0273 109.019 20.0123C110.158 20.0123 110.96 19.3339 110.96 17.8923V12.1153H114.083Z" fill="#1D2130"/>
<path d="M132.02 16.1644V22.6092H128.855V16.44C128.855 15.38 128.359 14.7228 127.356 14.7228C126.354 14.7228 125.721 15.4542 125.721 16.6944V22.6092H122.556V16.44C122.556 15.38 122.06 14.7228 121.057 14.7228C120.055 14.7228 119.422 15.4542 119.422 16.6944V22.6092H116.257V12.1152H119.422V13.0798C119.75 12.6536 120.178 12.3162 120.668 12.0978C121.158 11.8794 121.694 11.7871 122.229 11.829C122.764 11.801 123.297 11.9132 123.776 12.1548C124.255 12.3964 124.664 12.759 124.961 13.207C125.309 12.739 125.769 12.3671 126.299 12.1261C126.828 11.8851 127.41 11.7829 127.989 11.829C130.458 11.829 132.02 13.5462 132.02 16.1644Z" fill="#1D2130"/>
<path d="M14.3221 4.53625V0.03125H0.183594V30.9832H14.3221V26.4782C11.4258 26.4782 8.64819 25.3224 6.60021 23.2649C4.55223 21.2075 3.40169 18.4169 3.40169 15.5072C3.40169 12.5976 4.55223 9.80704 6.60021 7.74958C8.64819 5.69212 11.4258 4.53625 14.3221 4.53625Z" fill="#1D2130"/>
<path d="M14.3221 4.53625V26.4782C17.2184 26.4782 19.996 25.3224 22.044 23.2649C24.0919 21.2075 25.2425 18.4169 25.2425 15.5073C25.2425 12.5976 24.0919 9.80704 22.044 7.74958C19.996 5.69212 17.2184 4.53625 14.3221 4.53625Z" fill="#1D2130"/>
<path d="M134.679 12.0516C135.961 12.0516 137 11.0076 137 9.71962C137 8.43169 135.961 7.38762 134.679 7.38762C133.397 7.38762 132.358 8.43169 132.358 9.71962C132.358 11.0076 133.397 12.0516 134.679 12.0516Z" fill="#1D2130"/>
</g>
</svg>
