<svg width="134" height="32" viewBox="0 0 134 32" fill="none" xmlns="http://www.w3.org/2000/svg">
<g opacity="0.6">
<path d="M38.1572 9.48191H41.5442V23.1319H38.1572V9.48191ZM42.8947 17.9974C42.8947 14.6164 45.0049 12.5899 48.1703 12.5899C51.3356 12.5899 53.4459 14.6164 53.4459 17.9974C53.4459 21.3784 51.4095 23.4259 48.1703 23.4259C44.9311 23.4259 42.8947 21.4519 42.8947 17.9974ZM50.0906 17.9974C50.0906 16.1389 49.3626 15.0469 48.2019 15.0469C47.0413 15.0469 46.3238 16.0969 46.3238 17.9974C46.3238 19.8979 47.0413 20.9374 48.2019 20.9374C49.3626 20.9374 50.1117 19.8979 50.1117 18.0079L50.0906 17.9974ZM54.7964 23.8354H58.0672C58.2162 24.1858 58.4762 24.4782 58.8077 24.6678C59.1392 24.8573 59.5239 24.9338 59.9032 24.8854C61.2009 24.8854 61.8762 24.1924 61.8762 23.1634V21.2734H61.8868C61.6073 21.8619 61.1553 22.3524 60.5903 22.6804C60.0253 23.0084 59.3738 23.1585 58.7214 23.1109C56.2419 23.1109 54.5959 21.2314 54.5959 17.9974C54.5959 14.7634 56.168 12.7474 58.8164 12.7474C59.4854 12.7118 60.1491 12.8835 60.716 13.2389C61.2829 13.5943 61.7251 14.116 61.9817 14.7319H61.8868V12.8314H65.242V23.0584C65.242 25.5259 63.0474 27.0694 59.8187 27.0694C56.8855 27.0589 55.0074 25.7254 54.8175 23.8459L54.7964 23.8354ZM61.8868 17.9974C61.8868 16.3489 61.1271 15.3094 59.9243 15.3094C58.7214 15.3094 57.9828 16.3594 57.9828 17.9974C57.9828 19.6354 58.7109 20.6014 59.9243 20.6014C61.1376 20.6014 61.8868 19.7089 61.8868 17.9974ZM66.582 17.9974C66.582 14.6164 68.6922 12.5899 71.8576 12.5899C75.0229 12.5899 77.1332 14.6164 77.1332 17.9974C77.1332 21.3784 75.0862 23.4259 71.8576 23.4259C68.6289 23.4259 66.6031 21.4519 66.6031 17.9974H66.582ZM73.7779 17.9974C73.7779 16.1389 73.0393 15.0469 71.8893 15.0469C70.7392 15.0469 70.0111 16.0969 70.0111 17.9974C70.0111 19.8979 70.7286 20.9374 71.8893 20.9374C73.0499 20.9374 73.799 19.8979 73.799 18.0079L73.7779 17.9974ZM78.5048 10.3429C78.4901 9.99958 78.5789 9.65972 78.7598 9.36703C78.9408 9.07435 79.2056 8.84224 79.5202 8.70057C79.8348 8.55889 80.1848 8.51413 80.5252 8.57204C80.8656 8.62995 81.1808 8.78788 81.4302 9.02552C81.6797 9.26316 81.852 9.56963 81.9249 9.90551C81.9979 10.2414 81.9682 10.5913 81.8397 10.9103C81.7112 11.2292 81.4897 11.5026 81.2038 11.6953C80.9178 11.888 80.5805 11.9911 80.2352 11.9914C80.0145 11.997 79.7949 11.9589 79.5891 11.8793C79.3834 11.7998 79.1955 11.6803 79.0365 11.528C78.8775 11.3756 78.7505 11.1933 78.6628 10.9917C78.5752 10.79 78.5286 10.5731 78.5259 10.3534L78.5048 10.3429ZM78.5048 12.8209H81.9339V23.1739H78.5576L78.5048 12.8209ZM94.2682 17.9974C94.2682 21.3679 92.7489 23.3209 90.1638 23.3209C89.502 23.3615 88.8436 23.1991 88.2776 22.8554C87.7115 22.5118 87.265 22.0036 86.9985 21.3994H86.9352V26.5024H83.5482V12.8524H86.9141V14.7004H86.9774C87.2348 14.0843 87.6769 13.5622 88.2433 13.2052C88.8097 12.8482 89.473 12.6737 90.1427 12.7054C92.8016 12.6844 94.3315 14.6269 94.3315 18.0079L94.2682 17.9974ZM90.818 17.9974C90.818 16.3594 90.0478 15.2989 88.8555 15.2989C87.6632 15.2989 86.9141 16.3489 86.9035 17.9974C86.893 19.6459 87.6632 20.6854 88.8555 20.6854C90.0478 20.6854 90.8813 19.7089 90.8813 18.0079L90.818 17.9974ZM100.05 12.5794C102.888 12.5794 104.651 13.9129 104.672 16.0549H101.58C101.58 15.3094 100.958 14.8474 100.029 14.8474C99.1006 14.8474 98.6575 15.2044 98.6575 15.7399C98.6575 16.2754 99.0479 16.4434 99.8287 16.6009L102.002 17.0419C104.112 17.4829 104.957 18.3229 104.957 19.8874C104.957 21.9874 103.005 23.4154 100.103 23.4154C97.2014 23.4154 95.3128 22.0294 95.1756 19.9189H98.457C98.552 20.6854 99.1639 21.1369 100.156 21.1369C101.148 21.1369 101.612 20.8219 101.612 20.2654C101.612 19.7089 101.295 19.6144 100.483 19.4464L98.5203 19.0369C96.484 18.6064 95.4183 17.5459 95.4183 15.9604C95.4816 13.9024 97.2542 12.5899 100.114 12.5899L100.05 12.5794ZM116.299 23.1634H113.018V21.2209H112.954C112.771 21.8688 112.371 22.4351 111.82 22.8264C111.27 23.2177 110.602 23.4106 109.926 23.3734C109.416 23.3899 108.908 23.299 108.436 23.1064C107.964 22.9139 107.538 22.6242 107.186 22.2564C106.835 21.8885 106.565 21.4508 106.395 20.972C106.226 20.4931 106.16 19.984 106.202 19.4779V12.8314H109.588V18.7534C109.588 19.9714 110.232 20.6329 111.287 20.6329C111.535 20.6311 111.779 20.5764 112.003 20.4725C112.228 20.3687 112.427 20.2182 112.588 20.031C112.75 19.8439 112.868 19.6246 112.937 19.3879C113.005 19.1512 113.022 18.9026 112.986 18.6589V12.8314H116.362L116.299 23.1634ZM117.934 12.8209H121.226V14.8159H121.3C121.482 14.1768 121.872 13.6158 122.408 13.2206C122.945 12.8254 123.598 12.6184 124.265 12.6319C124.935 12.5739 125.603 12.7667 126.137 13.1726C126.672 13.5784 127.035 14.1681 127.156 14.8264H127.304C127.515 14.1646 127.939 13.5907 128.512 13.1938C129.084 12.797 129.772 12.5994 130.469 12.6319C130.932 12.6144 131.394 12.6944 131.824 12.8666C132.254 13.0389 132.642 13.2996 132.964 13.6317C133.286 13.9637 133.534 14.3596 133.691 14.7935C133.848 15.2274 133.912 15.6894 133.877 16.1494V23.1739H130.469V17.0104C130.469 15.9604 129.973 15.3724 129.013 15.3724C128.8 15.3689 128.589 15.4113 128.394 15.4967C128.199 15.582 128.025 15.7083 127.884 15.8669C127.742 16.0255 127.637 16.2126 127.575 16.4154C127.514 16.6182 127.496 16.8319 127.525 17.0419V23.1739H124.297V16.9789C124.297 15.9289 123.78 15.3724 122.851 15.3724C122.636 15.3707 122.423 15.4148 122.226 15.5018C122.03 15.5888 121.854 15.7166 121.711 15.8768C121.568 16.0369 121.461 16.2255 121.398 16.4301C121.334 16.6347 121.315 16.8505 121.342 17.0629V23.1739H117.956L117.934 12.8209Z" fill="#1D2130"/>
<path d="M31.4572 10.3745C31.4573 8.28468 30.8231 6.24355 29.6378 4.51846C28.4525 2.79337 26.7712 1.46476 24.8143 0.706655C22.8573 -0.0514509 20.7159 -0.203703 18.6705 0.269839C16.6251 0.74338 14.7712 1.82064 13.3514 3.36051H0.183594V31.0175H27.9858V18.092C29.0771 17.1207 29.9502 15.9314 30.5484 14.6016C31.1465 13.2718 31.4562 11.8314 31.4572 10.3745ZM26.1077 10.3745C26.1098 11.3759 25.8133 12.3554 25.2558 13.1891C24.6982 14.0228 23.9047 14.6731 22.9756 15.0577C22.0465 15.4424 21.0236 15.5441 20.0364 15.35C19.0492 15.1559 18.142 14.6748 17.4297 13.9674C16.7174 13.26 16.232 12.3582 16.0349 11.3762C15.8379 10.3942 15.938 9.37607 16.3226 8.45068C16.7072 7.52529 17.359 6.73425 18.1956 6.17767C19.0321 5.62109 20.0158 5.32401 21.0221 5.324C22.3691 5.324 23.661 5.85577 24.6145 6.80262C25.5679 7.74947 26.1049 9.03407 26.1077 10.3745ZM22.6364 25.694H5.53302V8.68401H10.7453C10.6446 9.24204 10.5917 9.80757 10.587 10.3745C10.5898 13.1278 11.6901 15.7675 13.6465 17.7144C15.6028 19.6613 18.2554 20.7562 21.0221 20.759C21.563 20.7562 22.1028 20.7105 22.6364 20.6225V25.694Z" fill="#1D2130"/>
</g>
</svg>
