<svg width="124" height="25" viewBox="0 0 124 25" fill="none" xmlns="http://www.w3.org/2000/svg">
<g opacity="0.6">
<path d="M40.0892 20.2033C39.4649 20.2368 38.8475 20.061 38.3365 19.7041C38.123 19.5473 37.9512 19.3413 37.836 19.1039C37.7209 18.8665 37.6657 18.6049 37.6754 18.3417V8.70092C37.6703 8.6601 37.6746 8.61867 37.6881 8.57977C37.7016 8.54088 37.7239 8.50554 37.7532 8.47646C37.7826 8.44738 37.8182 8.42531 37.8575 8.41194C37.8967 8.39857 37.9385 8.39426 37.9797 8.39932H39.7428C39.9422 8.39932 40.0367 8.50332 40.0367 8.70092V17.5929C40.0367 17.9881 40.2151 18.1857 40.5824 18.1857C40.7381 18.1921 40.8939 18.1745 41.0442 18.1337C41.2541 18.1337 41.3695 18.1961 41.38 18.3833L41.5374 19.6833C41.545 19.7212 41.5443 19.7603 41.5353 19.7979C41.5264 19.8355 41.5094 19.8707 41.4855 19.9013C41.4616 19.9318 41.4314 19.957 41.397 19.975C41.3625 19.993 41.3245 20.0035 41.2856 20.0057C40.8994 20.1321 40.4958 20.1988 40.0892 20.2033Z" fill="#1D2130"/>
<path d="M50.0067 19.0906C49.1207 19.8159 48.0075 20.2127 46.8583 20.2127C45.7091 20.2127 44.5958 19.8159 43.7098 19.0906C42.9312 18.3116 42.4943 17.2594 42.4943 16.163C42.4943 15.0665 42.9312 14.0144 43.7098 13.2354C44.5975 12.5137 45.7101 12.1193 46.8583 12.1193C48.0064 12.1193 49.119 12.5137 50.0067 13.2354C50.7674 14.0215 51.1921 15.0686 51.1921 16.1578C51.1921 17.247 50.7674 18.294 50.0067 19.0802V19.0906ZM45.368 17.7178C45.7791 18.0868 46.314 18.2912 46.8687 18.2912C47.4235 18.2912 47.9584 18.0868 48.3695 17.7178C48.7416 17.2938 48.9465 16.7509 48.9465 16.189C48.9465 15.6271 48.7416 15.0841 48.3695 14.6602C47.9584 14.2911 47.4235 14.0867 46.8687 14.0867C46.314 14.0867 45.7791 14.2911 45.368 14.6602C44.9959 15.0841 44.791 15.6271 44.791 16.189C44.791 16.7509 44.9959 17.2938 45.368 17.7178Z" fill="#1D2130"/>
<path d="M60.9002 12.3825C61.0996 12.3825 61.194 12.4865 61.194 12.6841V20.1409C61.2124 20.6442 61.1173 21.1452 60.9158 21.6075C60.7143 22.0699 60.4114 22.4819 60.0291 22.8137C59.1805 23.5307 58.0892 23.9024 56.9752 23.8537C55.9689 23.8888 54.976 23.6165 54.1311 23.0737C53.7703 22.8389 53.4621 22.5331 53.2256 22.1753C52.989 21.8175 52.8293 21.4153 52.7563 20.9937C52.7563 20.7857 52.7563 20.6921 53.0396 20.6921H54.8027C54.8776 20.6946 54.9501 20.7186 55.0116 20.761C55.073 20.8034 55.1208 20.8626 55.1491 20.9313C55.2634 21.2472 55.4914 21.5101 55.7892 21.6697C56.1523 21.8553 56.5563 21.9483 56.9647 21.9401C57.2111 21.9535 57.4577 21.9181 57.6901 21.8359C57.9226 21.7538 58.1362 21.6266 58.3185 21.4617C58.485 21.2892 58.6145 21.0851 58.6993 20.8617C58.7841 20.6383 58.8223 20.4002 58.8117 20.1617V19.5065C58.1805 19.9666 57.4121 20.2046 56.6288 20.1825C56.0806 20.2023 55.534 20.112 55.0218 19.9172C54.5096 19.7224 54.0424 19.4271 53.6483 19.0489C52.8917 18.2732 52.4688 17.2366 52.4688 16.1577C52.4688 15.0789 52.8917 14.0422 53.6483 13.2665C54.0444 12.8917 54.5121 12.5992 55.024 12.4063C55.5359 12.2134 56.0815 12.124 56.6288 12.1433C57.4348 12.1222 58.2238 12.3755 58.8642 12.8609V12.6945C58.8594 12.6547 58.8636 12.6142 58.8765 12.5762C58.8894 12.5381 58.9107 12.5034 58.9388 12.4745C58.967 12.4457 59.0012 12.4234 59.0392 12.4092C59.0771 12.3951 59.1177 12.3895 59.1581 12.3929L60.9002 12.3825ZM56.8282 18.3313C57.0986 18.3396 57.3675 18.289 57.616 18.1829C57.8644 18.0769 58.0863 17.9181 58.266 17.7177C58.6149 17.2712 58.8042 16.7225 58.8042 16.1577C58.8042 15.593 58.6149 15.0442 58.266 14.5977C58.0869 14.4 57.8664 14.2436 57.6198 14.1394C57.3732 14.0352 57.1066 13.9857 56.8387 13.9945C56.5652 13.986 56.2931 14.0365 56.0413 14.1424C55.7894 14.2483 55.5638 14.4072 55.38 14.6081C54.9934 15.0352 54.7901 15.5949 54.8132 16.1681C54.7943 16.7358 54.993 17.2894 55.3695 17.7177C55.5537 17.918 55.7794 18.0766 56.0312 18.1825C56.283 18.2884 56.5548 18.3391 56.8282 18.3313Z" fill="#1D2130"/>
<path d="M70.2509 19.0905C69.3633 19.8121 68.2506 20.2065 67.1025 20.2065C65.9544 20.2065 64.8418 19.8121 63.9541 19.0905C63.1927 18.3026 62.7677 17.2538 62.7677 16.1629C62.7677 15.072 63.1927 14.0232 63.9541 13.2353C64.8426 12.5155 65.9549 12.1223 67.1025 12.1223C68.2501 12.1223 69.3624 12.5155 70.2509 13.2353C71.0116 14.0215 71.4364 15.0685 71.4364 16.1577C71.4364 17.2469 71.0116 18.294 70.2509 19.0801V19.0905ZM65.6018 17.7177C65.803 17.9074 66.0401 18.0556 66.2995 18.1538C66.559 18.252 66.8354 18.2982 67.113 18.2897C67.3888 18.2968 67.6633 18.2499 67.9208 18.1518C68.1784 18.0536 68.4138 17.9061 68.6137 17.7177C68.9798 17.2909 69.1807 16.749 69.1807 16.1889C69.1807 15.6288 68.9798 15.0869 68.6137 14.6601C68.4138 14.4717 68.1784 14.3242 67.9208 14.2261C67.6633 14.1279 67.3888 14.081 67.113 14.0881C66.8354 14.0797 66.559 14.1259 66.2995 14.224C66.0401 14.3222 65.803 14.4705 65.6018 14.6601C65.2357 15.0869 65.0348 15.6288 65.0348 16.1889C65.0348 16.749 65.2357 17.2909 65.6018 17.7177Z" fill="#1D2130"/>
<path d="M75.2255 10.6146C74.9481 10.8552 74.5919 10.9878 74.2232 10.9878C73.8545 10.9878 73.4984 10.8552 73.221 10.6146C73.0952 10.4969 72.995 10.3551 72.9265 10.1977C72.858 10.0403 72.8227 9.87074 72.8227 9.69936C72.8227 9.52797 72.858 9.35839 72.9265 9.20102C72.995 9.04364 73.0952 8.90179 73.221 8.78416C73.5013 8.54955 73.8563 8.42084 74.2232 8.42084C74.5901 8.42084 74.9452 8.54955 75.2255 8.78416C75.3513 8.90179 75.4515 9.04364 75.5199 9.20102C75.5884 9.35839 75.6238 9.52797 75.6238 9.69936C75.6238 9.87074 75.5884 10.0403 75.5199 10.1977C75.4515 10.3551 75.3513 10.4969 75.2255 10.6146ZM75.4459 20.2034C74.822 20.2337 74.2056 20.0581 73.6932 19.7042C73.483 19.545 73.3142 19.3383 73.201 19.1012C73.0878 18.8642 73.0335 18.6038 73.0426 18.3418V12.6842C73.0375 12.6433 73.0418 12.6019 73.0553 12.563C73.0688 12.5241 73.0911 12.4888 73.1204 12.4597C73.1498 12.4306 73.1854 12.4086 73.2247 12.3952C73.2639 12.3818 73.3057 12.3775 73.3469 12.3826H75.11C75.3094 12.3826 75.4039 12.4866 75.4039 12.6842V17.593C75.4039 17.9882 75.5823 18.1858 75.9391 18.1858C76.0983 18.1914 76.2574 18.1739 76.4114 18.1338C76.6213 18.1338 76.7367 18.1962 76.7472 18.3834L76.9046 19.6834C76.9122 19.7213 76.9115 19.7603 76.9025 19.7979C76.8936 19.8355 76.8766 19.8708 76.8527 19.9013C76.8288 19.9319 76.7986 19.957 76.7642 19.975C76.7297 19.993 76.6917 20.0035 76.6528 20.0058C76.2631 20.1329 75.856 20.1996 75.4459 20.2034Z" fill="#1D2130"/>
<path d="M83.3904 12.133C83.9412 12.1114 84.4906 12.1997 85.0062 12.3927C85.5218 12.5856 85.9931 12.8793 86.3919 13.2562C87.1341 14.0455 87.5467 15.0842 87.5467 16.163C87.5467 17.2418 87.1341 18.2805 86.3919 19.0698C85.995 19.45 85.5243 19.7466 85.0084 19.9414C84.4925 20.1362 83.9421 20.2254 83.3904 20.2034C82.6045 20.2207 81.8344 19.9833 81.1971 19.5274V23.2818C81.1971 23.4794 81.0921 23.573 80.8927 23.573H79.1296C79.0894 23.5804 79.0479 23.578 79.0088 23.5661C78.9697 23.5541 78.9342 23.5328 78.9052 23.5041C78.8763 23.4754 78.8548 23.4402 78.8427 23.4015C78.8306 23.3627 78.8282 23.3216 78.8357 23.2818V14.7538C78.8481 14.6704 78.8406 14.5852 78.8139 14.5052C78.7871 14.4252 78.7419 14.3525 78.6817 14.2928C78.6215 14.2332 78.5481 14.1884 78.4674 14.1619C78.3866 14.1354 78.3007 14.1279 78.2166 14.1402H77.8702C77.6393 14.1402 77.5239 14.057 77.5239 13.8906V12.6634C77.5185 12.5874 77.5394 12.512 77.5834 12.4495C77.6273 12.387 77.6915 12.3414 77.7653 12.3202C78.1283 12.1894 78.5125 12.126 78.8987 12.133C79.2838 12.0992 79.6704 12.1801 80.0088 12.3654C80.3472 12.5507 80.6221 12.8319 80.7983 13.173C81.1363 12.8341 81.5405 12.5671 81.9862 12.3883C82.4319 12.2095 82.9097 12.1226 83.3904 12.133ZM81.7533 17.7178C81.9404 17.9116 82.1652 18.0658 82.4141 18.1712C82.663 18.2765 82.9309 18.3309 83.2016 18.3309C83.4722 18.3309 83.7401 18.2765 83.989 18.1712C84.2379 18.0658 84.4627 17.9116 84.6498 17.7178C85.044 17.2821 85.2511 16.7112 85.227 16.1266C85.2545 15.5414 85.047 14.9693 84.6498 14.5354C84.4627 14.3416 84.2379 14.1873 83.989 14.082C83.7401 13.9766 83.4722 13.9223 83.2016 13.9223C82.9309 13.9223 82.663 13.9766 82.4141 14.082C82.1652 14.1873 81.9404 14.3416 81.7533 14.5354C81.3714 14.9769 81.1727 15.5455 81.1971 16.1266C81.1758 16.7072 81.3741 17.2747 81.7533 17.7178Z" fill="#1D2130"/>
<path d="M92.4998 20.2033C91.5576 20.2417 90.6235 20.0183 89.8026 19.5585C89.4733 19.3619 89.1928 19.0944 88.9821 18.7757C88.7713 18.457 88.6357 18.0954 88.5852 17.7177C88.5852 17.5097 88.6587 17.4057 88.8896 17.4057H90.4323C90.5057 17.4085 90.5769 17.4314 90.638 17.4718C90.6991 17.5122 90.7478 17.5685 90.7786 17.6345C90.999 18.1961 91.5762 18.4769 92.4998 18.4769C92.8219 18.4915 93.1427 18.4272 93.4338 18.2897C93.5343 18.2447 93.6205 18.1736 93.6834 18.0838C93.7462 17.9941 93.7833 17.8891 93.7906 17.7801C93.7906 17.5097 93.6227 17.3225 93.2869 17.1977C92.8885 17.0663 92.4767 16.9791 92.059 16.9377C91.5641 16.8822 91.0734 16.7953 90.5897 16.6777C90.1194 16.5722 89.6917 16.3295 89.3618 15.9809C89.1676 15.744 89.0246 15.47 88.9418 15.1759C88.8589 14.8819 88.838 14.5741 88.8803 14.2717C88.9227 13.9693 89.0273 13.6788 89.1878 13.4182C89.3483 13.1576 89.5611 12.9325 89.8131 12.7569C90.5695 12.2794 91.4571 12.0468 92.3528 12.0913C93.2201 12.0622 94.0782 12.2748 94.8296 12.7049C95.1324 12.8749 95.3932 13.1096 95.5929 13.3921C95.7926 13.6746 95.9262 13.9976 95.984 14.3377C95.984 14.5457 95.8896 14.6497 95.7007 14.6497H94.1474C94.082 14.6535 94.017 14.6377 93.9608 14.6043C93.9046 14.5709 93.8599 14.5215 93.8326 14.4625C93.7288 14.2162 93.5334 14.0188 93.2869 13.9113C93.0087 13.7671 92.6981 13.6955 92.3843 13.7033C92.0767 13.6867 91.7698 13.7475 91.4923 13.8801C91.3945 13.9175 91.3102 13.983 91.2504 14.0683C91.1905 14.1536 91.1578 14.2546 91.1564 14.3585C91.1631 14.5007 91.2157 14.6371 91.3064 14.7475C91.397 14.8579 91.521 14.9367 91.6602 14.9721C92.0632 15.1226 92.4822 15.2273 92.9091 15.2841C93.3999 15.3481 93.8868 15.4384 94.3678 15.5545C94.8382 15.66 95.2658 15.9027 95.5957 16.2513C95.7722 16.4434 95.9085 16.6681 95.9967 16.9127C96.085 17.1573 96.1235 17.4167 96.1099 17.6761C96.119 18.0356 96.0338 18.3913 95.8628 18.7085C95.6917 19.0256 95.4406 19.2934 95.1339 19.4857C94.3498 19.9845 93.431 20.2348 92.4998 20.2033Z" fill="#1D2130"/>
<path d="M107.203 19.6833C107.209 19.7202 107.207 19.758 107.198 19.7943C107.189 19.8306 107.173 19.8648 107.151 19.8948C107.128 19.9249 107.1 19.9501 107.067 19.9692C107.035 19.9882 106.999 20.0006 106.962 20.0057C106.578 20.1297 106.179 20.1963 105.776 20.2033C105.377 20.2442 104.974 20.1825 104.606 20.024C104.239 19.8655 103.918 19.6156 103.677 19.2985C102.935 19.9301 101.977 20.2542 101.001 20.2033C100.547 20.224 100.095 20.1505 99.6717 19.9875C99.2487 19.8245 98.8649 19.5757 98.5448 19.2569C98.2269 18.9229 97.9803 18.5288 97.8198 18.0981C97.6594 17.6674 97.5882 17.2091 97.6108 16.7505V12.6841C97.6108 12.4865 97.7052 12.3825 97.9046 12.3825H99.6677C99.8671 12.3825 99.9616 12.4865 99.9616 12.6841V16.4385C99.9424 16.9063 100.104 17.3637 100.413 17.7177C100.567 17.8799 100.755 18.0074 100.963 18.0918C101.171 18.1761 101.395 18.2152 101.62 18.2065C101.85 18.2165 102.079 18.1812 102.296 18.1026C102.512 18.0241 102.71 17.9039 102.879 17.7489C103.039 17.5856 103.163 17.3915 103.245 17.1786C103.326 16.9658 103.362 16.7386 103.351 16.5113V12.6841C103.351 12.4865 103.446 12.3825 103.645 12.3825H105.429C105.629 12.3825 105.723 12.4865 105.723 12.6841V17.5825C105.723 17.9881 105.902 18.1857 106.248 18.1857C106.411 18.192 106.573 18.1744 106.731 18.1337C106.77 18.1227 106.812 18.1207 106.853 18.1279C106.893 18.1351 106.932 18.1514 106.965 18.1754C106.998 18.1994 107.026 18.2306 107.045 18.2666C107.064 18.3026 107.075 18.3425 107.077 18.3833L107.203 19.6833Z" fill="#1D2130"/>
<path d="M123.879 19.6834C123.888 19.7206 123.889 19.7594 123.882 19.7971C123.874 19.8347 123.858 19.8702 123.835 19.901C123.812 19.9318 123.782 19.9572 123.748 19.9753C123.714 19.9934 123.676 20.0038 123.638 20.0058C123.248 20.1315 122.841 20.1981 122.431 20.2034C121.807 20.2353 121.19 20.0596 120.678 19.7042C120.457 19.5519 120.277 19.3479 120.154 19.1103C120.032 18.8726 119.97 18.6086 119.975 18.3418V15.8978C119.997 15.4314 119.839 14.9741 119.534 14.6186C119.387 14.456 119.205 14.3279 119.002 14.2433C118.799 14.1588 118.579 14.12 118.359 14.1298C118.16 14.1223 117.963 14.1597 117.781 14.2389C117.599 14.3182 117.438 14.4373 117.309 14.5874C117.032 14.9359 116.891 15.3714 116.91 15.8146V19.6522C116.91 19.8498 116.816 19.9538 116.617 19.9538H114.843C114.802 19.9588 114.76 19.9545 114.721 19.9411C114.682 19.9278 114.646 19.9057 114.617 19.8766C114.587 19.8475 114.565 19.8122 114.551 19.7733C114.538 19.7344 114.534 19.693 114.539 19.6522V15.8978C114.562 15.4365 114.416 14.9825 114.129 14.6186C114.001 14.4657 113.841 14.3427 113.66 14.2582C113.478 14.1737 113.28 14.1298 113.08 14.1298C112.866 14.1212 112.652 14.1575 112.453 14.2364C112.254 14.3152 112.075 14.4348 111.925 14.5874C111.625 14.9247 111.471 15.3654 111.495 15.8146V19.6522C111.5 19.693 111.496 19.7344 111.482 19.7733C111.469 19.8122 111.447 19.8475 111.417 19.8766C111.388 19.9057 111.352 19.9278 111.313 19.9411C111.274 19.9545 111.232 19.9588 111.191 19.9538H109.48C109.281 19.9538 109.186 19.8498 109.186 19.6522V14.7538C109.199 14.6704 109.191 14.5852 109.164 14.5052C109.138 14.4252 109.092 14.3524 109.032 14.2928C108.972 14.2332 108.899 14.1884 108.818 14.1619C108.737 14.1353 108.651 14.1279 108.567 14.1402H108.221C107.99 14.1402 107.875 14.057 107.875 13.8906V12.6634C107.869 12.5874 107.89 12.5119 107.934 12.4495C107.978 12.387 108.042 12.3414 108.116 12.3202C108.479 12.1894 108.863 12.1259 109.249 12.133C109.62 12.1017 109.992 12.1749 110.323 12.3442C110.653 12.5135 110.929 12.772 111.117 13.0898C111.471 12.7572 111.891 12.5006 112.35 12.336C112.808 12.1713 113.296 12.1022 113.783 12.133C114.256 12.1101 114.728 12.198 115.16 12.3895C115.592 12.5811 115.972 12.8708 116.27 13.2354C116.618 12.8613 117.044 12.5683 117.52 12.3777C117.996 12.187 118.508 12.1035 119.02 12.133C119.478 12.1117 119.936 12.1849 120.364 12.3478C120.792 12.5107 121.181 12.7598 121.507 13.0794C121.826 13.4127 122.073 13.8067 122.234 14.2375C122.394 14.6684 122.465 15.1271 122.441 15.5858V17.593C122.441 17.9882 122.62 18.1858 122.955 18.1858C123.118 18.1933 123.281 18.1757 123.438 18.1338C123.655 18.1338 123.771 18.217 123.785 18.3834L123.879 19.6834Z" fill="#1D2130"/>
<path d="M0.817978 11.0306C1.59225 7.94664 3.38543 5.20805 5.91201 3.25088C8.43859 1.2937 11.5533 0.230469 14.7602 0.230469C17.9671 0.230469 21.0818 1.2937 23.6084 3.25088C26.135 5.20805 27.9282 7.94664 28.7024 11.0306H27.4431C25.3186 10.9996 23.2377 11.6288 21.4926 12.8298C21.3918 12.902 21.2867 12.968 21.1777 13.0274H21.0308C20.9218 12.968 20.8167 12.902 20.716 12.8298C18.9553 11.6566 16.8818 11.0299 14.7602 11.0299C12.6386 11.0299 10.5651 11.6566 8.80446 12.8298C8.70374 12.902 8.59859 12.968 8.48962 13.0274H8.34269C8.23371 12.968 8.12857 12.902 8.02785 12.8298C6.28272 11.6288 4.20181 10.9996 2.07734 11.0306H0.817978ZM25.1762 17.5514C25.8227 17.0525 26.6239 16.7915 27.4431 16.813H29.1327V13.4746H27.4431C26.0003 13.4573 24.5905 13.9023 23.4236 14.7434C22.7669 15.2231 21.9726 15.4819 21.1567 15.4819C20.3409 15.4819 19.5465 15.2231 18.8899 14.7434C17.6934 13.918 16.2705 13.4755 14.8127 13.4755C13.3548 13.4755 11.932 13.918 10.7355 14.7434C10.0788 15.2231 9.28444 15.4819 8.46863 15.4819C7.65281 15.4819 6.85842 15.2231 6.20177 14.7434C5.02048 13.8916 3.59047 13.446 2.12982 13.4746H0.387695V16.813H2.07734C2.89647 16.7915 3.69772 17.0525 4.3442 17.5514C5.53851 18.3773 6.9598 18.8201 8.41615 18.8201C9.87251 18.8201 11.2938 18.3773 12.4881 17.5514C13.1354 17.054 13.9361 16.7932 14.755 16.813C15.5743 16.7897 16.3762 17.0509 17.0218 17.5514C18.2183 18.3768 19.6412 18.8192 21.099 18.8192C22.5569 18.8192 23.9797 18.3768 25.1762 17.5514ZM25.1762 23.521C25.8227 23.0221 26.6239 22.7611 27.4431 22.7826H29.1327V19.4442H27.4431C26.0003 19.4269 24.5905 19.8719 23.4236 20.713C22.7669 21.1927 21.9726 21.4515 21.1567 21.4515C20.3409 21.4515 19.5465 21.1927 18.8899 20.713C17.6934 19.8876 16.2705 19.4452 14.8127 19.4452C13.3548 19.4452 11.932 19.8876 10.7355 20.713C10.0788 21.1927 9.28444 21.4515 8.46863 21.4515C7.65281 21.4515 6.85842 21.1927 6.20177 20.713C5.02048 19.8612 3.59047 19.4156 2.12982 19.4442H0.387695V22.7826H2.07734C2.89647 22.7611 3.69772 23.0221 4.3442 23.521C5.53851 24.3469 6.9598 24.7898 8.41615 24.7898C9.87251 24.7898 11.2938 24.3469 12.4881 23.521C13.1354 23.0236 13.9361 22.7628 14.755 22.7826C15.5743 22.7593 16.3762 23.0205 17.0218 23.521C18.2183 24.3464 19.6412 24.7888 21.099 24.7888C22.5569 24.7888 23.9797 24.3464 25.1762 23.521Z" fill="#1D2130"/>
</g>
</svg>
