<svg width="128" height="60" viewBox="0 0 128 60" fill="none" xmlns="http://www.w3.org/2000/svg">
<path d="M68.4947 5.47287C69.3181 5.47287 70.0591 5.63755 70.7013 5.95043C71.3435 6.26331 71.8376 6.70792 72.1999 7.28428C72.5457 7.8771 72.7268 8.55226 72.7268 9.30976C72.7268 10.0508 72.5457 10.7095 72.1999 11.2694C71.8376 11.8293 71.36 12.2574 70.7507 12.5538L73.0232 17H70.2896L68.363 13.1302H66.2716V17H63.8015V5.47287H68.4947ZM66.2716 11.0718H68.2971C68.8735 11.0718 69.3345 10.9236 69.6804 10.5942C70.0262 10.2813 70.2073 9.85318 70.2073 9.30976C70.2073 8.76634 70.0262 8.33819 69.6804 8.00884C69.3345 7.69596 68.8735 7.53129 68.2971 7.53129H66.2716V11.0718ZM75.5944 16.5718C74.9193 16.2096 74.3923 15.6991 74.03 15.0404C73.6678 14.3817 73.4866 13.6242 73.4866 12.7679C73.4866 11.9116 73.6678 11.1541 74.03 10.4954C74.3923 9.83671 74.9193 9.3427 75.5944 8.98041C76.2696 8.61813 77.06 8.43699 77.9493 8.43699C78.8385 8.43699 79.6125 8.61813 80.2876 8.98041C80.9628 9.3427 81.4897 9.83671 81.852 10.4954C82.2143 11.1541 82.4119 11.9116 82.4119 12.7679C82.4119 13.6407 82.2143 14.3982 81.852 15.0569C81.4897 15.7155 80.9628 16.2096 80.2876 16.5718C79.6125 16.9341 78.8385 17.0988 77.9493 17.0988C77.06 17.0988 76.2696 16.9341 75.5944 16.5718ZM79.4807 14.5299C79.8595 14.0853 80.0571 13.4925 80.0571 12.7679C80.0571 12.0433 79.8595 11.467 79.4807 11.0059C79.102 10.5613 78.5915 10.3307 77.9493 10.3307C77.307 10.3307 76.7965 10.5613 76.4178 11.0059C76.0391 11.467 75.8579 12.0433 75.8579 12.7679C75.8579 13.4925 76.0391 14.0853 76.4178 14.5299C76.7965 14.991 77.307 15.2051 77.9493 15.2051C78.5915 15.2051 79.102 14.991 79.4807 14.5299ZM90.5074 16.226C89.7828 16.8189 88.8607 17.0988 87.7244 17.0988C86.8352 17.0988 86.0777 16.9341 85.419 16.5718C84.7603 16.2096 84.2498 15.6991 83.8875 15.0404C83.5253 14.3817 83.3606 13.6242 83.3606 12.7679C83.3606 11.9116 83.5253 11.1541 83.8875 10.4954C84.2498 9.83671 84.7603 9.3427 85.419 8.98041C86.0777 8.61813 86.8517 8.43699 87.7409 8.43699C88.8607 8.43699 89.7828 8.7334 90.5074 9.30976C91.2155 9.88612 91.6601 10.6765 91.8248 11.6975H89.4206C89.3217 11.2858 89.1241 10.9565 88.8277 10.7095C88.5313 10.4625 88.1526 10.3307 87.7244 10.3307C87.1151 10.3307 86.6376 10.5613 86.2753 11.0059C85.913 11.467 85.7319 12.0433 85.7319 12.7679C85.7319 13.4925 85.913 14.0853 86.2753 14.5299C86.6376 14.991 87.1151 15.2051 87.7244 15.2051C88.169 15.2051 88.5478 15.0898 88.8442 14.8263C89.1406 14.5793 89.3382 14.2335 89.437 13.7889H91.8248C91.6601 14.8263 91.232 15.6332 90.5074 16.226ZM93.0814 5.47287H95.4033V12.1421L98.7297 8.5358H101.332L98.3181 11.8457L101.496 17H98.8121L96.6713 13.5748L95.4033 14.9416V17H93.0814V5.47287Z" fill="white"/>
<path d="M68.1818 25.2346C69.5157 25.2346 70.5531 25.4981 71.2941 26.025C72.0187 26.552 72.3975 27.3095 72.3975 28.2646C72.3975 28.9891 72.1999 29.5655 71.8046 29.9936C71.4094 30.4383 70.8495 30.7182 70.125 30.8499C70.9813 30.9652 71.64 31.2452 72.101 31.6733C72.5621 32.1179 72.8091 32.7272 72.8091 33.5177C72.8091 34.5386 72.4139 35.3291 71.6564 35.9054C70.8825 36.4818 69.7956 36.7617 68.3959 36.7617H63.8015V25.2346H68.1818ZM66.2716 29.9772H68.2477C68.7746 29.9772 69.1863 29.8619 69.4827 29.5984C69.7792 29.3514 69.9274 29.0056 69.9274 28.5775C69.9274 28.1493 69.7792 27.82 69.4827 27.5565C69.1863 27.3095 68.7746 27.1777 68.2477 27.1777H66.2716V29.9772ZM66.2716 34.8021H68.4124C69.0052 34.8021 69.4498 34.6868 69.7792 34.4234C70.1085 34.1763 70.2732 33.8305 70.2732 33.3695C70.2732 32.9084 70.1085 32.5461 69.7792 32.2826C69.4498 32.0191 68.9887 31.8874 68.4124 31.8874H66.2716V34.8021ZM76.0447 36.3336C75.3696 35.9713 74.8426 35.4608 74.4803 34.8021C74.118 34.1434 73.9369 33.3859 73.9369 32.5296C73.9369 31.6733 74.118 30.9158 74.4803 30.2571C74.8426 29.5984 75.3696 29.1044 76.0447 28.7421C76.7199 28.3799 77.5103 28.1987 78.3995 28.1987C79.2888 28.1987 80.0627 28.3799 80.7379 28.7421C81.4131 29.1044 81.94 29.5984 82.3023 30.2571C82.6646 30.9158 82.8622 31.6733 82.8622 32.5296C82.8622 33.4024 82.6646 34.1599 82.3023 34.8186C81.94 35.4773 81.4131 35.9713 80.7379 36.3336C80.0627 36.6958 79.2888 36.8605 78.3995 36.8605C77.5103 36.8605 76.7199 36.6958 76.0447 36.3336ZM79.931 34.2916C80.3097 33.847 80.5074 33.2542 80.5074 32.5296C80.5074 31.8051 80.3097 31.2287 79.931 30.7676C79.5523 30.323 79.0418 30.0925 78.3995 30.0925C77.7573 30.0925 77.2468 30.323 76.8681 30.7676C76.4893 31.2287 76.3082 31.8051 76.3082 32.5296C76.3082 33.2542 76.4893 33.847 76.8681 34.2916C77.2468 34.7527 77.7573 34.9668 78.3995 34.9668C79.0418 34.9668 79.5523 34.7527 79.931 34.2916ZM84.6515 30.2571H83.2517V28.2975H84.6515V25.9262H86.9734V28.2975H88.9V30.2571H86.9734V33.9623C86.9734 34.2587 87.0228 34.4728 87.1545 34.6045C87.2862 34.7362 87.5003 34.8021 87.7967 34.8021H88.9988V36.7617H87.0722C85.4584 36.7617 84.6515 35.9548 84.6515 34.341V30.2571ZM89.9777 25.9262H92.2996V28.2975H94.2263V30.2571H92.2996V33.9623C92.2996 34.2587 92.349 34.4728 92.4808 34.6045C92.6125 34.7362 92.8266 34.8021 93.123 34.8021H94.3251V36.7617H92.3984C90.7846 36.7617 89.9777 35.9548 89.9777 34.341V25.9262ZM96.9505 36.3336C96.2753 35.9713 95.7484 35.4608 95.3861 34.8021C95.0238 34.1434 94.8427 33.3859 94.8427 32.5296C94.8427 31.6733 95.0238 30.9158 95.3861 30.2571C95.7484 29.5984 96.2753 29.1044 96.9505 28.7421C97.6257 28.3799 98.4161 28.1987 99.3053 28.1987C100.195 28.1987 100.969 28.3799 101.644 28.7421C102.319 29.1044 102.846 29.5984 103.208 30.2571C103.57 30.9158 103.768 31.6733 103.768 32.5296C103.768 33.4024 103.57 34.1599 103.208 34.8186C102.846 35.4773 102.319 35.9713 101.644 36.3336C100.969 36.6958 100.195 36.8605 99.3053 36.8605C98.4161 36.8605 97.6257 36.6958 96.9505 36.3336ZM100.837 34.2916C101.216 33.847 101.413 33.2542 101.413 32.5296C101.413 31.8051 101.216 31.2287 100.837 30.7676C100.458 30.323 99.9475 30.0925 99.3053 30.0925C98.6631 30.0925 98.1526 30.323 97.7739 30.7676C97.3951 31.2287 97.214 31.8051 97.214 32.5296C97.214 33.2542 97.3951 33.847 97.7739 34.2916C98.1526 34.7527 98.6631 34.9668 99.3053 34.9668C99.9475 34.9668 100.458 34.7527 100.837 34.2916ZM117.446 29.1044C118.006 29.7137 118.302 30.7182 118.302 32.1179V36.7782H115.98V32.0356C115.98 30.7511 115.486 30.1089 114.515 30.1089C114.004 30.1089 113.593 30.2901 113.296 30.6523C112.983 31.0146 112.835 31.5086 112.835 32.1344V36.7782H110.513V32.0356C110.513 30.7511 110.019 30.1089 109.031 30.1089C108.521 30.1089 108.109 30.3065 107.812 30.6688C107.516 31.0311 107.368 31.5251 107.368 32.1509V36.7782H105.046V28.2975H107.071L107.286 29.3514C107.565 28.9891 107.911 28.7092 108.307 28.5116C108.702 28.314 109.196 28.2152 109.789 28.1987C110.991 28.1987 111.831 28.6763 112.308 29.6314C112.604 29.1703 113.016 28.8245 113.51 28.5775C114.004 28.3304 114.581 28.1987 115.223 28.1987C116.128 28.1987 116.87 28.5116 117.446 29.1044Z" fill="white"/>
<path d="M63.8015 44.9963H66.2716V56.5234H63.8015V44.9963ZM75.3378 48.8826C75.9635 49.5084 76.2929 50.5129 76.2929 51.9291V56.5234H73.971V52.0608C73.971 50.6117 73.3946 49.8706 72.2584 49.8706C71.6491 49.8706 71.188 50.0847 70.8587 50.4799C70.5293 50.8916 70.3646 51.468 70.3646 52.1925V56.5234H68.0428V48.0592H70.0682L70.2823 49.1131C70.5787 48.7509 70.9245 48.4709 71.3527 48.2733C71.7644 48.0757 72.2749 47.9604 72.9006 47.9604C73.8887 47.9604 74.6955 48.2733 75.3378 48.8826ZM79.8802 44.914C80.1272 45.161 80.2589 45.4739 80.2589 45.8361C80.2589 46.2149 80.1272 46.5278 79.8802 46.7748C79.6167 47.0383 79.3038 47.1535 78.9251 47.1535C78.5299 47.1535 78.217 47.0383 77.9535 46.7748C77.69 46.5278 77.5748 46.2149 77.5748 45.8361C77.5748 45.4739 77.69 45.161 77.9535 44.914C78.217 44.667 78.5299 44.5352 78.9251 44.5352C79.3038 44.5352 79.6167 44.667 79.8802 44.914ZM77.7559 48.0592H80.0778V56.5234H77.7559V48.0592ZM82.2393 50.0188H80.8395V48.0592H82.2393V45.6879H84.5611V48.0592H86.4878V50.0188H84.5611V53.724C84.5611 54.0204 84.6105 54.2345 84.7423 54.3662C84.874 54.498 85.0881 54.5638 85.3845 54.5638H86.5866V56.5234H84.66C83.0462 56.5234 82.2393 55.7165 82.2393 54.1027V50.0188ZM89.6898 44.914C89.9368 45.161 90.0686 45.4739 90.0686 45.8361C90.0686 46.2149 89.9368 46.5278 89.6898 46.7748C89.4263 47.0383 89.1135 47.1535 88.7347 47.1535C88.3395 47.1535 88.0266 47.0383 87.7631 46.7748C87.4997 46.5278 87.3844 46.2149 87.3844 45.8361C87.3844 45.4739 87.4997 45.161 87.7631 44.914C88.0266 44.667 88.3395 44.5352 88.7347 44.5352C89.1135 44.5352 89.4263 44.667 89.6898 44.914ZM87.5655 48.0592H89.8874V56.5234H87.5655V48.0592ZM99.8379 54.5638V56.5234H98.6523C97.5819 56.5234 97.055 56.0624 97.0879 55.1402C96.775 55.6342 96.3963 55.9965 95.9516 56.2435C95.4906 56.507 94.9471 56.6222 94.3214 56.6222C93.3663 56.6222 92.6088 56.4082 92.0324 55.98C91.4561 55.5519 91.1761 54.9261 91.1761 54.1357C91.1761 53.2464 91.5055 52.5548 92.1642 52.0608C92.8229 51.5668 93.7944 51.3198 95.0624 51.3198H96.7421V50.9081C96.7421 50.5293 96.5939 50.2329 96.3139 50.0024C96.0175 49.7718 95.6388 49.6566 95.1612 49.6566C94.7331 49.6566 94.3708 49.7554 94.1073 49.9365C93.8274 50.1341 93.6627 50.3811 93.6133 50.694H91.3737C91.4396 49.8377 91.8348 49.1625 92.5264 48.685C93.2181 48.2074 94.1238 47.9604 95.2765 47.9604C96.4621 47.9604 97.3843 48.2239 98.043 48.7509C98.7017 49.2778 99.031 50.0518 99.031 51.0398V54.0204C99.031 54.2345 99.064 54.3827 99.1628 54.4486C99.2451 54.5309 99.3768 54.5638 99.5745 54.5638H99.8379ZM96.7421 52.8677H95.0459C94.5519 52.8677 94.1732 52.9665 93.9097 53.1641C93.6462 53.3617 93.5145 53.6252 93.5145 53.971C93.5145 54.2674 93.6133 54.5144 93.8438 54.6791C94.0744 54.8602 94.3708 54.9426 94.766 54.9426C95.3588 54.9426 95.8364 54.7779 96.1987 54.4321C96.5445 54.0863 96.7256 53.6252 96.7421 53.0324V52.8677ZM101.28 50.0188H99.8799V48.0592H101.28V45.6879H103.601V48.0592H105.528V50.0188H103.601V53.724C103.601 54.0204 103.651 54.2345 103.783 54.3662C103.914 54.498 104.128 54.5638 104.425 54.5638H105.627V56.5234H103.7C102.086 56.5234 101.28 55.7165 101.28 54.1027V50.0188ZM108.73 44.914C108.977 45.161 109.109 45.4739 109.109 45.8361C109.109 46.2149 108.977 46.5278 108.73 46.7748C108.467 47.0383 108.154 47.1535 107.775 47.1535C107.38 47.1535 107.067 47.0383 106.803 46.7748C106.54 46.5278 106.425 46.2149 106.425 45.8361C106.425 45.4739 106.54 45.161 106.803 44.914C107.067 44.667 107.38 44.5352 107.775 44.5352C108.154 44.5352 108.467 44.667 108.73 44.914ZM106.606 48.0592H108.928V56.5234H106.606V48.0592ZM109.722 48.0592H112.209L114.251 54.1521L116.26 48.0592H118.697L115.651 56.5234H112.769L109.722 48.0592ZM119.347 50.0188C119.709 49.3602 120.203 48.8661 120.845 48.5039C121.488 48.1416 122.229 47.9604 123.085 47.9604C123.941 47.9604 124.682 48.1416 125.341 48.4709C126 48.8003 126.51 49.2778 126.873 49.8871C127.235 50.4964 127.432 51.2045 127.449 52.0279C127.449 52.3243 127.416 52.5877 127.383 52.8183H121.241V52.8842C121.29 53.5099 121.488 53.9875 121.834 54.3333C122.163 54.6956 122.64 54.8602 123.233 54.8602C123.694 54.8602 124.09 54.7614 124.402 54.5638C124.715 54.3662 124.929 54.0533 125.028 53.6581H127.317C127.218 54.218 127.004 54.7285 126.675 55.1731C126.329 55.6342 125.884 55.98 125.325 56.2435C124.765 56.507 124.122 56.6222 123.398 56.6222C122.443 56.6222 121.636 56.4576 120.944 56.0953C120.253 55.7495 119.726 55.2555 119.363 54.5968C119.001 53.9381 118.82 53.1806 118.82 52.3078C118.82 51.435 118.985 50.6775 119.347 50.0188ZM125.127 51.3033C125.045 50.7928 124.831 50.3976 124.485 50.1176C124.139 49.8377 123.711 49.6895 123.184 49.6895C122.673 49.6895 122.245 49.8377 121.899 50.1341C121.554 50.4305 121.356 50.8093 121.29 51.3033H125.127Z" fill="white"/>
<path fill-rule="evenodd" clip-rule="evenodd" d="M0.000976562 13.7396L0.133283 24.6736C0.133283 24.6736 0.637974 32.4779 9.79459 33.316C10.2823 32.5529 9.9931 23.4952 9.9931 23.4952H19.7206C19.7206 23.4952 20.1584 16.9227 12.9709 14.1324C12.0672 13.3448 0.000976562 13.7396 0.000976562 13.7396Z" fill="#8B0000"/>
<path fill-rule="evenodd" clip-rule="evenodd" d="M39.6389 3.98311L39.5066 14.9172C39.5066 14.9172 38.8699 22.7198 29.7161 23.5597C29.2285 22.7951 29.5176 13.7222 29.5176 13.7222H19.7932C19.7932 13.7222 19.3555 7.13879 26.5407 4.34389C27.4444 3.55511 39.6389 3.98311 39.6389 3.98311Z" fill="#55A393"/>
<path fill-rule="evenodd" clip-rule="evenodd" d="M9.79492 52.8412L9.92723 41.899C9.92723 41.899 10.5639 34.0908 19.7178 33.25C20.2054 34.015 19.9163 43.0947 19.9163 43.0947H29.6407C29.6407 43.0947 30.0783 49.6829 22.8931 52.4797C21.9894 53.2691 9.79492 52.8412 9.79492 52.8412Z" fill="#ECB984"/>
<path fill-rule="evenodd" clip-rule="evenodd" d="M49.3001 43.0868L49.1678 32.1447C49.1678 32.1447 48.5311 24.3367 39.3772 23.4961C38.8897 24.2612 39.1788 33.3404 39.1788 33.3404H29.4544C29.4544 33.3404 29.0167 39.9285 36.202 42.7254C37.1053 43.5156 49.3001 43.0868 49.3001 43.0868Z" fill="#B62F2B"/>
</svg>
