<svg width="143" height="29" viewBox="0 0 143 29" fill="none" xmlns="http://www.w3.org/2000/svg">
<g opacity="0.6">
<path d="M21.3558 12.7959C20.9581 13.1963 20.6535 13.6795 20.4638 14.2111C20.274 14.7426 20.2038 15.3096 20.2581 15.8714L20.2392 15.8525C20.295 16.5138 20.2058 17.1794 19.978 17.8027C19.7502 18.426 19.3891 18.9921 18.92 19.4614C18.451 19.9307 17.8852 20.292 17.2622 20.5199C16.6391 20.7479 15.9739 20.837 15.3129 20.7812L15.3318 20.8001C14.5411 20.7265 13.7469 20.8986 13.0576 21.2931C12.3683 21.6876 11.8173 22.2851 11.4799 23.0044C11.1424 23.7236 11.0349 24.5294 11.172 25.312C11.3091 26.0946 11.6841 26.8158 12.2459 27.3774C12.8076 27.9389 13.5289 28.3135 14.3112 28.4499C15.0935 28.5864 15.8989 28.4781 16.6174 28.1398C17.336 27.8015 17.9328 27.2498 18.3264 26.5598C18.7201 25.8697 18.8914 25.075 18.8171 24.284L18.8371 24.3029C18.7813 23.6416 18.8704 22.976 19.0982 22.3527C19.3261 21.7294 19.6871 21.1633 20.1562 20.694C20.6253 20.2247 21.191 19.8634 21.8141 19.6355C22.4371 19.4075 23.1023 19.3184 23.7633 19.3742L23.7434 19.3553C24.3893 19.4134 25.0394 19.3075 25.6335 19.0473C26.2276 18.7871 26.7464 18.381 27.1419 17.8668C27.5373 17.3526 27.7967 16.7468 27.8958 16.1056C27.995 15.4644 27.9308 14.8085 27.7091 14.1988C27.4874 13.589 27.1155 13.0451 26.6278 12.6175C26.1401 12.1898 25.5524 11.8923 24.9192 11.7524C24.2859 11.6125 23.6276 11.6348 23.0052 11.8172C22.3829 11.9996 21.8166 12.3363 21.359 12.7959H21.3558Z" fill="#1D2130"/>
<path d="M13.6137 18.3242L13.5938 18.3053C14.1556 18.3619 14.723 18.2929 15.2549 18.1033C15.7868 17.9137 16.2699 17.6081 16.6694 17.2088C17.0688 16.8095 17.3745 16.3263 17.5645 15.7943C17.7544 15.2623 17.8238 14.6947 17.7676 14.1326L17.7875 14.1515C17.7317 13.4901 17.8209 12.8245 18.0487 12.2012C18.2765 11.5779 18.6376 11.0118 19.1067 10.5425C19.5757 10.0732 20.1415 9.712 20.7645 9.48405C21.3876 9.2561 22.0528 9.16692 22.7138 9.22275L22.6939 9.20385C23.4846 9.27815 24.2791 9.10658 24.9688 8.71256C25.6585 8.31853 26.21 7.72122 26.5479 7.00211C26.8859 6.283 26.9939 5.47709 26.8572 4.69431C26.7205 3.91153 26.3458 3.18998 25.7842 2.62809C25.2226 2.0662 24.5014 1.69132 23.719 1.55457C22.9366 1.41783 22.1311 1.52589 21.4123 1.86401C20.6936 2.20213 20.0966 2.75385 19.7027 3.44391C19.3089 4.13398 19.1374 4.92879 19.2117 5.71995L19.1928 5.7C19.2488 6.36138 19.1598 7.02702 18.932 7.65043C18.7042 8.27384 18.3432 8.83999 17.8741 9.30933C17.405 9.77867 16.8391 10.1399 16.216 10.3678C15.5929 10.5957 14.9276 10.6847 14.2665 10.6287L14.2854 10.6487C13.7236 10.592 13.1562 10.661 12.6243 10.8506C12.0924 11.0402 11.6093 11.3458 11.2098 11.7451C10.8104 12.1444 10.5047 12.6276 10.3147 13.1596C10.1248 13.6916 10.0554 14.2592 10.1116 14.8214L10.0927 14.8025C10.1483 15.4638 10.0591 16.1292 9.83118 16.7525C9.60328 17.3757 9.24222 17.9417 8.77319 18.411C8.30416 18.8802 7.73844 19.2415 7.11551 19.4695C6.49258 19.6975 5.82743 19.7868 5.16645 19.7312L5.18534 19.7501C4.39458 19.6758 3.60015 19.8473 2.91043 20.2413C2.2207 20.6354 1.66925 21.2327 1.3313 21.9518C0.993348 22.6709 0.885342 23.4768 1.02202 24.2596C1.15869 25.0424 1.53339 25.7639 2.09501 26.3258C2.65662 26.8877 3.37781 27.2626 4.16021 27.3993C4.94261 27.5361 5.74812 27.428 6.46688 27.0899C7.18563 26.7518 7.78264 26.2001 8.17648 25.51C8.57031 24.8199 8.74179 24.0251 8.66753 23.234L8.68747 23.2529C8.63167 22.5915 8.7208 21.926 8.94864 21.3026C9.17647 20.6793 9.53753 20.1132 10.0066 19.6439C10.4757 19.1746 11.0415 18.8134 11.6645 18.5854C12.2875 18.3575 12.9527 18.2683 13.6137 18.3242Z" fill="#1D2130"/>
<path d="M6.58015 16.2168C6.97793 15.8166 7.28247 15.3334 7.47205 14.8017C7.66163 14.2701 7.73156 13.7032 7.67686 13.1414L7.6968 13.1603C7.64096 12.4987 7.73013 11.833 7.95809 11.2095C8.18605 10.586 8.54729 10.0198 9.0166 9.5505C9.48591 9.08116 10.052 8.71997 10.6752 8.49217C11.2985 8.26436 11.964 8.17543 12.6252 8.23158L12.6052 8.21268C13.3957 8.28677 14.1898 8.11511 14.8792 7.72112C15.5686 7.32712 16.1198 6.72996 16.4575 6.01107C16.7953 5.29218 16.9032 4.48657 16.7665 3.70408C16.6299 2.92159 16.2553 2.20032 15.6939 1.63863C15.1325 1.07695 14.4115 0.70218 13.6294 0.565445C12.8473 0.42871 12.0421 0.536662 11.3236 0.874576C10.605 1.21249 10.0082 1.76392 9.61437 2.45367C9.22057 3.14341 9.049 3.9379 9.12305 4.72878L9.10416 4.70988C9.15996 5.37122 9.07083 6.03679 8.84299 6.66011C8.61516 7.28343 8.2541 7.8495 7.78503 8.3188C7.31596 8.78811 6.75017 9.14934 6.12715 9.37729C5.50413 9.60523 4.8389 9.69441 4.17789 9.63858L4.19677 9.65748C3.55089 9.59953 2.90084 9.70563 2.30685 9.96595C1.71286 10.2263 1.19416 10.6324 0.79881 11.1466C0.403458 11.6609 0.144249 12.2667 0.0452039 12.9079C-0.0538415 13.5491 0.0104804 14.2049 0.23221 14.8146C0.453939 15.4243 0.825902 15.9681 1.31363 16.3957C1.80136 16.8233 2.38907 17.1208 3.0223 17.2606C3.65553 17.4004 4.3138 17.3781 4.9361 17.1956C5.55841 17.0132 6.12461 16.6765 6.58225 16.2168H6.58015Z" fill="#1D2130"/>
<path d="M39.09 5.7441H42.2069V20.9198H39.09V5.7441Z" fill="#1D2130"/>
<path d="M43.9722 15.7233C43.9678 14.6327 44.2871 13.5654 44.8895 12.6565C45.4919 11.7476 46.3504 11.038 47.3562 10.6176C48.362 10.1973 49.4699 10.085 50.5395 10.2951C51.6092 10.5052 52.5924 11.0282 53.3647 11.7978C54.1371 12.5674 54.6637 13.549 54.878 14.6183C55.0923 15.6876 54.9845 16.7965 54.5684 17.8045C54.1522 18.8125 53.4465 19.6742 52.5404 20.2806C51.6344 20.8869 50.5689 21.2106 49.4788 21.2106C48.7553 21.2189 48.0373 21.0827 47.3669 20.8102C46.6965 20.5376 46.0872 20.1341 45.5745 19.6232C45.0618 19.1123 44.656 18.5043 44.3809 17.8346C44.1058 17.165 43.9668 16.4473 43.9722 15.7233ZM51.8685 15.7233C51.8555 15.2532 51.7043 14.7974 51.4338 14.4128C51.1632 14.0283 50.7854 13.732 50.3475 13.5611C49.9096 13.3902 49.4311 13.3522 48.9718 13.452C48.5124 13.5517 48.0927 13.7846 47.7649 14.1217C47.4372 14.4588 47.2161 14.8851 47.1292 15.3473C47.0423 15.8094 47.0935 16.287 47.2764 16.7202C47.4593 17.1534 47.7657 17.523 48.1575 17.7829C48.5492 18.0428 49.0088 18.1814 49.4788 18.1814C49.8007 18.19 50.1209 18.1317 50.4192 18.0104C50.7175 17.889 50.9874 17.7071 51.2119 17.4761C51.4365 17.2452 51.6107 16.9702 51.7237 16.6685C51.8367 16.3669 51.886 16.045 51.8685 15.7233Z" fill="#1D2130"/>
<path d="M67.4082 10.5258V20.3958C67.4082 23.8881 64.6858 25.3644 61.9225 25.3644C60.9496 25.4373 59.9754 25.2407 59.1068 24.7961C58.2382 24.3516 57.5087 23.6764 56.9983 22.8444L59.6577 21.3062C59.8722 21.7398 60.214 22.0976 60.6373 22.3316C61.0606 22.5656 61.5453 22.6647 62.0264 22.6155C62.3339 22.6582 62.647 22.6311 62.9427 22.5363C63.2383 22.4415 63.5088 22.2814 63.7342 22.0678C63.9596 21.8543 64.1342 21.5928 64.2449 21.3026C64.3557 21.0125 64.3998 20.7011 64.3741 20.3916V19.4414C64.0091 19.8882 63.5445 20.2432 63.0176 20.4779C62.4907 20.7125 61.9161 20.8204 61.34 20.7927C59.9692 20.7495 58.669 20.1742 57.7146 19.1888C56.7602 18.2033 56.2265 16.885 56.2265 15.5128C56.2265 14.1406 56.7602 12.8223 57.7146 11.8368C58.669 10.8514 59.9692 10.2761 61.34 10.2329C61.9161 10.2052 62.4907 10.3131 63.0176 10.5477C63.5445 10.7824 64.0091 11.1374 64.3741 11.5842V10.5237L67.4082 10.5258ZM64.3752 15.5144C64.3961 15.0118 64.2662 14.5145 64.0023 14.0863C63.7383 13.6582 63.3523 13.3189 62.894 13.1122C62.4357 12.9054 61.926 12.8406 61.4306 12.926C60.9351 13.0115 60.4766 13.2434 60.1139 13.5918C59.7513 13.9402 59.5012 14.3892 59.3958 14.8811C59.2904 15.3729 59.3345 15.885 59.5225 16.3516C59.7105 16.8181 60.0337 17.2177 60.4506 17.4989C60.8674 17.78 61.3589 17.93 61.8616 17.9294C62.1891 17.9522 62.5178 17.9062 62.8264 17.7943C63.1351 17.6824 63.4169 17.507 63.6536 17.2795C63.8904 17.052 64.077 16.7774 64.2012 16.4734C64.3255 16.1694 64.3847 15.8427 64.3752 15.5144Z" fill="#1D2130"/>
<path d="M69.1734 15.7233C69.169 14.6327 69.4882 13.5654 70.0907 12.6565C70.6931 11.7476 71.5516 11.038 72.5574 10.6176C73.5632 10.1973 74.6711 10.085 75.7407 10.2951C76.8103 10.5052 77.7936 11.0282 78.5659 11.7978C79.3382 12.5674 79.8649 13.549 80.0792 14.6183C80.2934 15.6876 80.1857 16.7965 79.7695 17.8045C79.3534 18.8125 78.6476 19.6742 77.7416 20.2806C76.8356 20.8869 75.77 21.2106 74.68 21.2106C73.9564 21.2189 73.2385 21.0827 72.5681 20.8102C71.8977 20.5376 71.2884 20.1341 70.7757 19.6232C70.263 19.1123 69.8572 18.5043 69.5821 17.8346C69.307 17.165 69.168 16.4473 69.1734 15.7233ZM77.0697 15.7233C77.0567 15.2532 76.9055 14.7974 76.6349 14.4128C76.3644 14.0283 75.9866 13.732 75.5487 13.5611C75.1108 13.3902 74.6323 13.3522 74.1729 13.452C73.7136 13.5517 73.2938 13.7846 72.9661 14.1217C72.6384 14.4588 72.4172 14.8851 72.3303 15.3473C72.2435 15.8094 72.2946 16.287 72.4775 16.7202C72.6604 17.1534 72.9669 17.523 73.3586 17.7829C73.7504 18.0428 74.21 18.1814 74.68 18.1814C75.0019 18.19 75.3221 18.1317 75.6204 18.0104C75.9187 17.889 76.1886 17.7071 76.4131 17.4761C76.6376 17.2452 76.8119 16.9702 76.9249 16.6685C77.0379 16.3669 77.0872 16.045 77.0697 15.7233Z" fill="#1D2130"/>
<path d="M81.6402 7.74016C81.6402 7.37009 81.7499 7.00833 81.9554 6.70063C82.1609 6.39293 82.4529 6.15311 82.7947 6.01149C83.1364 5.86987 83.5124 5.83281 83.8752 5.90501C84.238 5.97721 84.5712 6.15541 84.8328 6.41709C85.0943 6.67877 85.2724 7.01217 85.3446 7.37512C85.4167 7.73808 85.3797 8.1143 85.2382 8.4562C85.0966 8.7981 84.8569 9.09032 84.5494 9.29592C84.2418 9.50152 83.8802 9.61126 83.5103 9.61126C83.0159 9.60634 82.543 9.40762 82.1934 9.05779C81.8437 8.70795 81.6451 8.23488 81.6402 7.74016ZM81.955 10.5258H85.073V20.9208H81.9508L81.955 10.5258Z" fill="#1D2130"/>
<path d="M98.5317 15.7233C98.5677 16.4103 98.4676 17.0976 98.2372 17.7458C98.0068 18.394 97.6506 18.9902 97.1891 19.5001C96.7275 20.0101 96.1698 20.4237 95.548 20.7173C94.9261 21.0108 94.2524 21.1785 93.5655 21.2106C92.9879 21.2421 92.4105 21.1447 91.8752 20.9253C91.3399 20.7059 90.8601 20.3701 90.4706 19.9422V25.0777H87.3536V10.5258H90.4706V11.5023C90.8603 11.0747 91.3401 10.7392 91.8754 10.52C92.4107 10.3008 92.988 10.2034 93.5655 10.2349C94.2525 10.2669 94.9264 10.4345 95.5484 10.7281C96.1704 11.0217 96.7282 11.4354 97.1898 11.9455C97.6513 12.4556 98.0075 13.052 98.2378 13.7003C98.4681 14.3487 98.568 15.0362 98.5317 15.7233ZM95.4147 15.7233C95.4025 15.2368 95.2472 14.7647 94.9682 14.3661C94.6891 13.9675 94.2988 13.6601 93.846 13.4824C93.3932 13.3046 92.898 13.2644 92.4225 13.3669C91.947 13.4693 91.5122 13.7097 91.1727 14.0581C90.8331 14.4066 90.6037 14.8474 90.5134 15.3256C90.423 15.8038 90.4756 16.298 90.6646 16.7464C90.8536 17.1948 91.1705 17.5775 91.5758 17.8466C91.9811 18.1156 92.4568 18.2591 92.9432 18.2591C93.2771 18.2739 93.6104 18.218 93.9212 18.095C94.232 17.9719 94.5133 17.7846 94.7467 17.5451C94.9801 17.3057 95.1602 17.0196 95.2753 16.7056C95.3905 16.3917 95.438 16.0569 95.4147 15.7233Z" fill="#1D2130"/>
<path d="M108.15 17.8013C108.15 20.1921 106.073 21.2106 103.829 21.2106C102.923 21.2928 102.012 21.101 101.216 20.66C100.42 20.2189 99.7736 19.549 99.3618 18.7368L102.062 17.1986C102.171 17.574 102.406 17.9006 102.727 18.1238C103.048 18.347 103.435 18.4533 103.825 18.425C104.572 18.425 104.947 18.1961 104.947 17.7813C104.947 16.6368 99.8351 17.2406 99.8351 13.6443C99.8351 11.3774 101.747 10.235 103.908 10.235C104.72 10.2093 105.525 10.402 106.237 10.7932C106.95 11.1843 107.544 11.7596 107.959 12.4589L105.3 13.8932C105.183 13.6209 104.989 13.389 104.742 13.2264C104.494 13.0637 104.204 12.9776 103.908 12.9786C103.368 12.9786 103.035 13.1886 103.035 13.5603C103.039 14.7458 108.15 13.9551 108.15 17.8013Z" fill="#1D2130"/>
<path d="M119.536 10.5258V20.9208H116.419V19.9433C116.059 20.3746 115.603 20.7145 115.087 20.935C114.57 21.1555 114.009 21.2503 113.449 21.2117C111.35 21.2117 109.566 19.7154 109.566 16.9067V10.5258H112.683V16.4499C112.657 16.6975 112.685 16.9478 112.765 17.1834C112.846 17.419 112.977 17.6342 113.149 17.8141C113.321 17.9939 113.53 18.1342 113.761 18.225C113.993 18.3158 114.242 18.355 114.49 18.3399C115.633 18.3399 116.422 17.6753 116.422 16.199V10.529L119.536 10.5258Z" fill="#1D2130"/>
<path d="M137.409 14.5379V20.9198H134.292V14.8078C134.292 13.7683 133.793 13.1036 132.796 13.1036C131.757 13.1036 131.175 13.8313 131.175 15.0577V20.9198H128.059V14.8078C128.059 13.7683 127.56 13.1036 126.562 13.1036C125.523 13.1036 124.942 13.8313 124.942 15.0577V20.9198H121.825V10.5248H124.942V11.4803C125.265 11.0564 125.689 10.7203 126.176 10.5025C126.662 10.2848 127.195 10.1925 127.726 10.234C128.26 10.2079 128.791 10.3205 129.268 10.5608C129.744 10.8011 130.151 11.161 130.448 11.6053C130.793 11.1405 131.251 10.7709 131.777 10.5311C132.304 10.2912 132.883 10.189 133.461 10.234C135.846 10.235 137.409 11.9392 137.409 14.5379Z" fill="#1D2130"/>
<path d="M140.045 10.4618C141.323 10.4618 142.358 9.4257 142.358 8.1476C142.358 6.8695 141.323 5.8334 140.045 5.8334C138.768 5.8334 137.732 6.8695 137.732 8.1476C137.732 9.4257 138.768 10.4618 140.045 10.4618Z" fill="#1D2130"/>
</g>
</svg>
