<svg width="171" height="65" viewBox="0 0 171 65" fill="none" xmlns="http://www.w3.org/2000/svg">
<path d="M6.66803 29.04H2.58803V23.328H6.66803V16.416H13.436V23.328H19.052V29.04H13.436V39.84C13.436 40.704 13.58 41.328 13.964 41.712C14.348 42.096 14.972 42.288 15.836 42.288H19.34V48H13.724C9.02003 48 6.66803 45.648 6.66803 40.944V29.04ZM25.8024 46.752C23.8344 45.696 22.2984 44.208 21.2424 42.288C20.1864 40.368 19.6584 38.16 19.6584 35.664C19.6584 33.168 20.1864 30.96 21.2424 29.04C22.2984 27.12 23.8344 25.68 25.8024 24.624C27.7704 23.568 30.0744 23.04 32.6664 23.04C35.2584 23.04 37.5144 23.568 39.4824 24.624C41.4504 25.68 42.9864 27.12 44.0424 29.04C45.0984 30.96 45.6744 33.168 45.6744 35.664C45.6744 38.208 45.0984 40.416 44.0424 42.336C42.9864 44.256 41.4504 45.696 39.4824 46.752C37.5144 47.808 35.2584 48.288 32.6664 48.288C30.0744 48.288 27.7704 47.808 25.8024 46.752ZM37.1304 40.8C38.2344 39.504 38.8104 37.776 38.8104 35.664C38.8104 33.552 38.2344 31.872 37.1304 30.528C36.0264 29.232 34.5384 28.56 32.6664 28.56C30.7944 28.56 29.3064 29.232 28.2024 30.528C27.0984 31.872 26.5704 33.552 26.5704 35.664C26.5704 37.776 27.0984 39.504 28.2024 40.8C29.3064 42.144 30.7944 42.768 32.6664 42.768C34.5384 42.768 36.0264 42.144 37.1304 40.8ZM72.8717 14.4V48H66.9677L66.2957 44.592C64.3757 47.088 61.8317 48.288 58.6157 48.288C56.4077 48.288 54.4877 47.808 52.7597 46.752C51.0317 45.696 49.6397 44.208 48.6797 42.288C47.7197 40.368 47.2397 38.16 47.2397 35.616C47.2397 33.12 47.7197 30.96 48.6797 29.04C49.6397 27.12 51.0317 25.68 52.7597 24.624C54.4877 23.568 56.4557 23.04 58.6637 23.04C61.8317 23.04 64.3277 24.192 66.1037 26.4V14.4H72.8717ZM64.5677 40.848C65.6237 39.552 66.1997 37.824 66.1997 35.712C66.1997 33.6 65.6237 31.872 64.5677 30.528C63.4637 29.232 62.0237 28.56 60.1997 28.56C58.3757 28.56 56.8877 29.232 55.7837 30.528C54.6797 31.872 54.1517 33.552 54.1517 35.664C54.1517 37.776 54.6797 39.504 55.7837 40.8C56.8877 42.144 58.3757 42.768 60.1997 42.768C62.0237 42.768 63.4637 42.144 64.5677 40.848ZM100.678 42.288V48H97.2223C94.1023 48 92.5663 46.656 92.6623 43.968C91.7503 45.408 90.6463 46.464 89.3503 47.184C88.0063 47.952 86.4223 48.288 84.5983 48.288C81.8143 48.288 79.6063 47.664 77.9263 46.416C76.2463 45.168 75.4303 43.344 75.4303 41.04C75.4303 38.448 76.3903 36.432 78.3103 34.992C80.2303 33.552 83.0623 32.832 86.7583 32.832H91.6543V31.632C91.6543 30.528 91.2223 29.664 90.4063 28.992C89.5423 28.32 88.4383 27.984 87.0463 27.984C85.7983 27.984 84.7423 28.272 83.9743 28.8C83.1583 29.376 82.6783 30.096 82.5343 31.008H76.0063C76.1983 28.512 77.3503 26.544 79.3663 25.152C81.3823 23.76 84.0223 23.04 87.3823 23.04C90.8383 23.04 93.5263 23.808 95.4463 25.344C97.3663 26.88 98.3263 29.136 98.3263 32.016V40.704C98.3263 41.328 98.4223 41.76 98.7103 41.952C98.9503 42.192 99.3343 42.288 99.9103 42.288H100.678ZM91.6543 37.344H86.7103C85.2703 37.344 84.1663 37.632 83.3983 38.208C82.6303 38.784 82.2463 39.552 82.2463 40.56C82.2463 41.424 82.5343 42.144 83.2063 42.624C83.8783 43.152 84.7423 43.392 85.8943 43.392C87.6223 43.392 89.0143 42.912 90.0703 41.904C91.0783 40.896 91.6063 39.552 91.6543 37.824V37.344ZM106.053 23.328L112.053 41.04L117.909 23.328H125.157L114.213 51.504C113.637 53.04 113.061 54.192 112.581 55.056C112.053 55.92 111.381 56.544 110.613 56.976C109.845 57.408 108.837 57.6 107.589 57.6H101.013V51.888H104.757C105.621 51.888 106.245 51.744 106.629 51.456C107.013 51.168 107.349 50.64 107.733 49.776L108.357 48.144L98.8528 23.328H106.053Z" fill="#30312C"/>
<g filter="url(#filter0_b_274_1144)">
<path d="M4.31709 6.57275C4.4036 8.5424 5.28008 10.2821 6.2638 12.1959C10.5468 20.5283 16.3979 28.4609 23.6039 35.5221C38.7328 50.347 58.9045 61.9892 81.4335 62.5693C94.3121 62.901 109.746 59.3009 115.005 49.3251C117.991 43.6601 116.085 37.2633 112.309 31.3709C108.263 25.0563 102.295 19.1168 95.1081 15.012C89.5502 11.8376 79.2539 8.21222 76.4036 14.6729C74.8226 18.2564 76.0212 22.5148 77.8577 26.2439C81.6835 34.0123 88.8749 40.3094 97.058 45.3012C111.282 53.9781 128.199 57.9887 143.94 55.0939C149.921 53.9943 162.861 49.1556 168.098 45.2057" stroke="#ECB984" stroke-width="4" stroke-linecap="round"/>
</g>
<path d="M72.8138 14.4V48H66.9098L66.2378 44.592C64.3178 47.088 61.7738 48.288 58.5578 48.288C56.3498 48.288 54.4298 47.808 52.7018 46.752C50.9738 45.696 49.5818 44.208 48.6218 42.288C47.6618 40.368 47.1818 38.16 47.1818 35.616C47.1818 33.12 47.6618 30.96 48.6218 29.04C49.5818 27.12 50.9738 25.68 52.7018 24.624C54.4298 23.568 56.3978 23.04 58.6058 23.04C61.7738 23.04 64.2698 24.192 66.0458 26.4V14.4H72.8138ZM64.5098 40.848C65.5658 39.552 66.1418 37.824 66.1418 35.712C66.1418 33.6 65.5658 31.872 64.5098 30.528C63.4058 29.232 61.9658 28.56 60.1418 28.56C58.3178 28.56 56.8298 29.232 55.7258 30.528C54.6218 31.872 54.0938 33.552 54.0938 35.664C54.0938 37.776 54.6218 39.504 55.7258 40.8C56.8298 42.144 58.3178 42.768 60.1418 42.768C61.9658 42.768 63.4058 42.144 64.5098 40.848ZM100.62 42.288V48H97.1645C94.0445 48 92.5085 46.656 92.6045 43.968C91.6925 45.408 90.5885 46.464 89.2925 47.184C87.9485 47.952 86.3645 48.288 84.5405 48.288C81.7565 48.288 79.5485 47.664 77.8685 46.416C76.1885 45.168 75.3725 43.344 75.3725 41.04C75.3725 38.448 76.3325 36.432 78.2525 34.992C80.1725 33.552 83.0045 32.832 86.7005 32.832H91.5965V31.632C91.5965 30.528 91.1645 29.664 90.3485 28.992C89.4845 28.32 88.3805 27.984 86.9885 27.984C85.7405 27.984 84.6845 28.272 83.9165 28.8C83.1005 29.376 82.6205 30.096 82.4765 31.008H75.9485C76.1405 28.512 77.2925 26.544 79.3085 25.152C81.3245 23.76 83.9645 23.04 87.3245 23.04C90.7805 23.04 93.4685 23.808 95.3885 25.344C97.3085 26.88 98.2685 29.136 98.2685 32.016V40.704C98.2685 41.328 98.3645 41.76 98.6525 41.952C98.8925 42.192 99.2765 42.288 99.8525 42.288H100.62ZM91.5965 37.344H86.6525C85.2125 37.344 84.1085 37.632 83.3405 38.208C82.5725 38.784 82.1885 39.552 82.1885 40.56C82.1885 41.424 82.4765 42.144 83.1485 42.624C83.8205 43.152 84.6845 43.392 85.8365 43.392C87.5645 43.392 88.9565 42.912 90.0125 41.904C91.0205 40.896 91.5485 39.552 91.5965 37.824V37.344ZM105.995 23.328L111.995 41.04L117.851 23.328H125.099L114.155 51.504C113.579 53.04 113.003 54.192 112.523 55.056C111.995 55.92 111.323 56.544 110.555 56.976C109.787 57.408 108.779 57.6 107.531 57.6H100.955V51.888H104.699C105.563 51.888 106.187 51.744 106.571 51.456C106.955 51.168 107.291 50.64 107.675 49.776L108.299 48.144L98.795 23.328H105.995Z" fill="#30312C"/>
<defs>
<filter id="filter0_b_274_1144" x="-21.6826" y="-19.4258" width="215.781" height="108.016" filterUnits="userSpaceOnUse" color-interpolation-filters="sRGB">
<feFlood flood-opacity="0" result="BackgroundImageFix"/>
<feGaussianBlur in="BackgroundImageFix" stdDeviation="12"/>
<feComposite in2="SourceAlpha" operator="in" result="effect1_backgroundBlur_274_1144"/>
<feBlend mode="normal" in="SourceGraphic" in2="effect1_backgroundBlur_274_1144" result="shape"/>
</filter>
</defs>
</svg>
