<svg width="128" height="60" viewBox="0 0 128 60" fill="none" xmlns="http://www.w3.org/2000/svg">
<path d="M68.4947 5.83225C69.3181 5.83225 70.0591 5.99692 70.7013 6.3098C71.3435 6.62268 71.8376 7.0673 72.1999 7.64365C72.5457 8.23648 72.7268 8.91164 72.7268 9.66914C72.7268 10.4102 72.5457 11.0689 72.1999 11.6287C71.8376 12.1886 71.36 12.6168 70.7507 12.9132L73.0232 17.3594H70.2896L68.363 13.4896H66.2716V17.3594H63.8015V5.83225H68.4947ZM66.2716 11.4311H68.2971C68.8735 11.4311 69.3345 11.2829 69.6804 10.9536C70.0262 10.6407 70.2073 10.2126 70.2073 9.66914C70.2073 9.12571 70.0262 8.69756 69.6804 8.36822C69.3345 8.05534 68.8735 7.89066 68.2971 7.89066H66.2716V11.4311ZM75.5944 16.9312C74.9193 16.5689 74.3923 16.0585 74.03 15.3998C73.6678 14.7411 73.4866 13.9836 73.4866 13.1273C73.4866 12.271 73.6678 11.5135 74.03 10.8548C74.3923 10.1961 74.9193 9.70207 75.5944 9.33979C76.2696 8.97751 77.06 8.79637 77.9493 8.79637C78.8385 8.79637 79.6125 8.97751 80.2876 9.33979C80.9628 9.70207 81.4897 10.1961 81.852 10.8548C82.2143 11.5135 82.4119 12.271 82.4119 13.1273C82.4119 14 82.2143 14.7575 81.852 15.4162C81.4897 16.0749 80.9628 16.5689 80.2876 16.9312C79.6125 17.2935 78.8385 17.4582 77.9493 17.4582C77.06 17.4582 76.2696 17.2935 75.5944 16.9312ZM79.4807 14.8893C79.8595 14.4447 80.0571 13.8518 80.0571 13.1273C80.0571 12.4027 79.8595 11.8264 79.4807 11.3653C79.102 10.9207 78.5915 10.6901 77.9493 10.6901C77.307 10.6901 76.7965 10.9207 76.4178 11.3653C76.0391 11.8264 75.8579 12.4027 75.8579 13.1273C75.8579 13.8518 76.0391 14.4447 76.4178 14.8893C76.7965 15.3504 77.307 15.5644 77.9493 15.5644C78.5915 15.5644 79.102 15.3504 79.4807 14.8893ZM90.5074 16.5854C89.7828 17.1782 88.8607 17.4582 87.7244 17.4582C86.8352 17.4582 86.0777 17.2935 85.419 16.9312C84.7603 16.5689 84.2498 16.0585 83.8875 15.3998C83.5253 14.7411 83.3606 13.9836 83.3606 13.1273C83.3606 12.271 83.5253 11.5135 83.8875 10.8548C84.2498 10.1961 84.7603 9.70207 85.419 9.33979C86.0777 8.97751 86.8517 8.79637 87.7409 8.79637C88.8607 8.79637 89.7828 9.09278 90.5074 9.66914C91.2155 10.2455 91.6601 11.0359 91.8248 12.0569H89.4206C89.3217 11.6452 89.1241 11.3159 88.8277 11.0689C88.5313 10.8218 88.1526 10.6901 87.7244 10.6901C87.1151 10.6901 86.6376 10.9207 86.2753 11.3653C85.913 11.8264 85.7319 12.4027 85.7319 13.1273C85.7319 13.8518 85.913 14.4447 86.2753 14.8893C86.6376 15.3504 87.1151 15.5644 87.7244 15.5644C88.169 15.5644 88.5478 15.4492 88.8442 15.1857C89.1406 14.9387 89.3382 14.5929 89.437 14.1482H91.8248C91.6601 15.1857 91.232 15.9926 90.5074 16.5854ZM93.0814 5.83225H95.4033V12.5015L98.7297 8.89517H101.332L98.3181 12.2051L101.496 17.3594H98.8121L96.6713 13.9342L95.4033 15.301V17.3594H93.0814V5.83225Z" fill="#121212"/>
<path d="M68.1818 25.594C69.5157 25.594 70.5531 25.8574 71.2941 26.3844C72.0187 26.9114 72.3975 27.6689 72.3975 28.624C72.3975 29.3485 72.1999 29.9249 71.8046 30.353C71.4094 30.7976 70.8495 31.0776 70.125 31.2093C70.9813 31.3246 71.64 31.6045 72.101 32.0327C72.5621 32.4773 72.8091 33.0866 72.8091 33.877C72.8091 34.898 72.4139 35.6884 71.6564 36.2648C70.8825 36.8411 69.7956 37.1211 68.3959 37.1211H63.8015V25.594H68.1818ZM66.2716 30.3366H68.2477C68.7746 30.3366 69.1863 30.2213 69.4827 29.9578C69.7792 29.7108 69.9274 29.365 69.9274 28.9368C69.9274 28.5087 69.7792 28.1793 69.4827 27.9159C69.1863 27.6689 68.7746 27.5371 68.2477 27.5371H66.2716V30.3366ZM66.2716 35.1615H68.4124C69.0052 35.1615 69.4498 35.0462 69.7792 34.7827C70.1085 34.5357 70.2732 34.1899 70.2732 33.7288C70.2732 33.2677 70.1085 32.9055 69.7792 32.642C69.4498 32.3785 68.9887 32.2468 68.4124 32.2468H66.2716V35.1615ZM76.0447 36.6929C75.3696 36.3307 74.8426 35.8202 74.4803 35.1615C74.118 34.5028 73.9369 33.7453 73.9369 32.889C73.9369 32.0327 74.118 31.2752 74.4803 30.6165C74.8426 29.9578 75.3696 29.4638 76.0447 29.1015C76.7199 28.7392 77.5103 28.5581 78.3995 28.5581C79.2888 28.5581 80.0627 28.7392 80.7379 29.1015C81.4131 29.4638 81.94 29.9578 82.3023 30.6165C82.6646 31.2752 82.8622 32.0327 82.8622 32.889C82.8622 33.7618 82.6646 34.5193 82.3023 35.1779C81.94 35.8366 81.4131 36.3307 80.7379 36.6929C80.0627 37.0552 79.2888 37.2199 78.3995 37.2199C77.5103 37.2199 76.7199 37.0552 76.0447 36.6929ZM79.931 34.651C80.3097 34.2064 80.5074 33.6136 80.5074 32.889C80.5074 32.1644 80.3097 31.5881 79.931 31.127C79.5523 30.6824 79.0418 30.4518 78.3995 30.4518C77.7573 30.4518 77.2468 30.6824 76.8681 31.127C76.4893 31.5881 76.3082 32.1644 76.3082 32.889C76.3082 33.6136 76.4893 34.2064 76.8681 34.651C77.2468 35.1121 77.7573 35.3262 78.3995 35.3262C79.0418 35.3262 79.5523 35.1121 79.931 34.651ZM84.6515 30.6165H83.2517V28.6569H84.6515V26.2856H86.9734V28.6569H88.9V30.6165H86.9734V34.3216C86.9734 34.6181 87.0228 34.8321 87.1545 34.9639C87.2862 35.0956 87.5003 35.1615 87.7967 35.1615H88.9988V37.1211H87.0722C85.4584 37.1211 84.6515 36.3142 84.6515 34.7004V30.6165ZM89.9777 26.2856H92.2996V28.6569H94.2263V30.6165H92.2996V34.3216C92.2996 34.6181 92.349 34.8321 92.4808 34.9639C92.6125 35.0956 92.8266 35.1615 93.123 35.1615H94.3251V37.1211H92.3984C90.7846 37.1211 89.9777 36.3142 89.9777 34.7004V26.2856ZM96.9505 36.6929C96.2753 36.3307 95.7484 35.8202 95.3861 35.1615C95.0238 34.5028 94.8427 33.7453 94.8427 32.889C94.8427 32.0327 95.0238 31.2752 95.3861 30.6165C95.7484 29.9578 96.2753 29.4638 96.9505 29.1015C97.6257 28.7392 98.4161 28.5581 99.3053 28.5581C100.195 28.5581 100.969 28.7392 101.644 29.1015C102.319 29.4638 102.846 29.9578 103.208 30.6165C103.57 31.2752 103.768 32.0327 103.768 32.889C103.768 33.7618 103.57 34.5193 103.208 35.1779C102.846 35.8366 102.319 36.3307 101.644 36.6929C100.969 37.0552 100.195 37.2199 99.3053 37.2199C98.4161 37.2199 97.6257 37.0552 96.9505 36.6929ZM100.837 34.651C101.216 34.2064 101.413 33.6136 101.413 32.889C101.413 32.1644 101.216 31.5881 100.837 31.127C100.458 30.6824 99.9475 30.4518 99.3053 30.4518C98.6631 30.4518 98.1526 30.6824 97.7739 31.127C97.3951 31.5881 97.214 32.1644 97.214 32.889C97.214 33.6136 97.3951 34.2064 97.7739 34.651C98.1526 35.1121 98.6631 35.3262 99.3053 35.3262C99.9475 35.3262 100.458 35.1121 100.837 34.651ZM117.446 29.4638C118.006 30.0731 118.302 31.0776 118.302 32.4773V37.1376H115.98V32.395C115.98 31.1105 115.486 30.4683 114.515 30.4683C114.004 30.4683 113.593 30.6494 113.296 31.0117C112.983 31.374 112.835 31.868 112.835 32.4938V37.1376H110.513V32.395C110.513 31.1105 110.019 30.4683 109.031 30.4683C108.521 30.4683 108.109 30.6659 107.812 31.0282C107.516 31.3905 107.368 31.8845 107.368 32.5102V37.1376H105.046V28.6569H107.071L107.286 29.7108C107.565 29.3485 107.911 29.0686 108.307 28.871C108.702 28.6734 109.196 28.5746 109.789 28.5581C110.991 28.5581 111.831 29.0356 112.308 29.9907C112.604 29.5297 113.016 29.1838 113.51 28.9368C114.004 28.6898 114.581 28.5581 115.223 28.5581C116.128 28.5581 116.87 28.871 117.446 29.4638Z" fill="#121212"/>
<path d="M63.8015 45.3557H66.2716V56.8828H63.8015V45.3557ZM75.3378 49.242C75.9635 49.8677 76.2929 50.8722 76.2929 52.2884V56.8828H73.971V52.4202C73.971 50.971 73.3946 50.23 72.2584 50.23C71.6491 50.23 71.188 50.4441 70.8587 50.8393C70.5293 51.251 70.3646 51.8273 70.3646 52.5519V56.8828H68.0428V48.4186H70.0682L70.2823 49.4725C70.5787 49.1102 70.9245 48.8303 71.3527 48.6327C71.7644 48.4351 72.2749 48.3198 72.9006 48.3198C73.8887 48.3198 74.6955 48.6327 75.3378 49.242ZM79.8802 45.2734C80.1272 45.5204 80.2589 45.8332 80.2589 46.1955C80.2589 46.5743 80.1272 46.8871 79.8802 47.1342C79.6167 47.3976 79.3038 47.5129 78.9251 47.5129C78.5299 47.5129 78.217 47.3976 77.9535 47.1342C77.69 46.8871 77.5748 46.5743 77.5748 46.1955C77.5748 45.8332 77.69 45.5204 77.9535 45.2734C78.217 45.0263 78.5299 44.8946 78.9251 44.8946C79.3038 44.8946 79.6167 45.0263 79.8802 45.2734ZM77.7559 48.4186H80.0778V56.8828H77.7559V48.4186ZM82.2393 50.3782H80.8395V48.4186H82.2393V46.0473H84.5611V48.4186H86.4878V50.3782H84.5611V54.0834C84.5611 54.3798 84.6105 54.5939 84.7423 54.7256C84.874 54.8573 85.0881 54.9232 85.3845 54.9232H86.5866V56.8828H84.66C83.0462 56.8828 82.2393 56.0759 82.2393 54.4621V50.3782ZM89.6898 45.2734C89.9368 45.5204 90.0686 45.8332 90.0686 46.1955C90.0686 46.5743 89.9368 46.8871 89.6898 47.1342C89.4263 47.3976 89.1135 47.5129 88.7347 47.5129C88.3395 47.5129 88.0266 47.3976 87.7631 47.1342C87.4997 46.8871 87.3844 46.5743 87.3844 46.1955C87.3844 45.8332 87.4997 45.5204 87.7631 45.2734C88.0266 45.0263 88.3395 44.8946 88.7347 44.8946C89.1135 44.8946 89.4263 45.0263 89.6898 45.2734ZM87.5655 48.4186H89.8874V56.8828H87.5655V48.4186ZM99.8379 54.9232V56.8828H98.6523C97.5819 56.8828 97.055 56.4217 97.0879 55.4996C96.775 55.9936 96.3963 56.3559 95.9516 56.6029C95.4906 56.8663 94.9471 56.9816 94.3214 56.9816C93.3663 56.9816 92.6088 56.7675 92.0324 56.3394C91.4561 55.9112 91.1761 55.2855 91.1761 54.4951C91.1761 53.6058 91.5055 52.9142 92.1642 52.4202C92.8229 51.9261 93.7944 51.6791 95.0624 51.6791H96.7421V51.2675C96.7421 50.8887 96.5939 50.5923 96.3139 50.3618C96.0175 50.1312 95.6388 50.0159 95.1612 50.0159C94.7331 50.0159 94.3708 50.1147 94.1073 50.2959C93.8274 50.4935 93.6627 50.7405 93.6133 51.0534H91.3737C91.4396 50.1971 91.8348 49.5219 92.5264 49.0444C93.2181 48.5668 94.1238 48.3198 95.2765 48.3198C96.4621 48.3198 97.3843 48.5833 98.043 49.1102C98.7017 49.6372 99.031 50.4112 99.031 51.3992V54.3798C99.031 54.5939 99.064 54.7421 99.1628 54.8079C99.2451 54.8903 99.3768 54.9232 99.5745 54.9232H99.8379ZM96.7421 53.2271H95.0459C94.5519 53.2271 94.1732 53.3259 93.9097 53.5235C93.6462 53.7211 93.5145 53.9846 93.5145 54.3304C93.5145 54.6268 93.6133 54.8738 93.8438 55.0385C94.0744 55.2196 94.3708 55.3019 94.766 55.3019C95.3588 55.3019 95.8364 55.1373 96.1987 54.7915C96.5445 54.4456 96.7256 53.9846 96.7421 53.3917V53.2271ZM101.28 50.3782H99.8799V48.4186H101.28V46.0473H103.601V48.4186H105.528V50.3782H103.601V54.0834C103.601 54.3798 103.651 54.5939 103.783 54.7256C103.914 54.8573 104.128 54.9232 104.425 54.9232H105.627V56.8828H103.7C102.086 56.8828 101.28 56.0759 101.28 54.4621V50.3782ZM108.73 45.2734C108.977 45.5204 109.109 45.8332 109.109 46.1955C109.109 46.5743 108.977 46.8871 108.73 47.1342C108.467 47.3976 108.154 47.5129 107.775 47.5129C107.38 47.5129 107.067 47.3976 106.803 47.1342C106.54 46.8871 106.425 46.5743 106.425 46.1955C106.425 45.8332 106.54 45.5204 106.803 45.2734C107.067 45.0263 107.38 44.8946 107.775 44.8946C108.154 44.8946 108.467 45.0263 108.73 45.2734ZM106.606 48.4186H108.928V56.8828H106.606V48.4186ZM109.722 48.4186H112.209L114.251 54.5115L116.26 48.4186H118.697L115.651 56.8828H112.769L109.722 48.4186ZM119.347 50.3782C119.709 49.7195 120.203 49.2255 120.845 48.8632C121.488 48.5009 122.229 48.3198 123.085 48.3198C123.941 48.3198 124.682 48.5009 125.341 48.8303C126 49.1596 126.51 49.6372 126.873 50.2465C127.235 50.8558 127.432 51.5639 127.449 52.3872C127.449 52.6836 127.416 52.9471 127.383 53.1777H121.241V53.2435C121.29 53.8693 121.488 54.3468 121.834 54.6927C122.163 55.0549 122.64 55.2196 123.233 55.2196C123.694 55.2196 124.09 55.1208 124.402 54.9232C124.715 54.7256 124.929 54.4127 125.028 54.0175H127.317C127.218 54.5774 127.004 55.0879 126.675 55.5325C126.329 55.9936 125.884 56.3394 125.325 56.6029C124.765 56.8663 124.122 56.9816 123.398 56.9816C122.443 56.9816 121.636 56.8169 120.944 56.4547C120.253 56.1088 119.726 55.6148 119.363 54.9561C119.001 54.2974 118.82 53.5399 118.82 52.6672C118.82 51.7944 118.985 51.0369 119.347 50.3782ZM125.127 51.6627C125.045 51.1522 124.831 50.757 124.485 50.477C124.139 50.1971 123.711 50.0489 123.184 50.0489C122.673 50.0489 122.245 50.1971 121.899 50.4935C121.554 50.7899 121.356 51.1687 121.29 51.6627H125.127Z" fill="#121212"/>
<path fill-rule="evenodd" clip-rule="evenodd" d="M0.000976562 14.0989L0.133283 25.0329C0.133283 25.0329 0.637974 32.8373 9.79459 33.6754C10.2823 32.9123 9.9931 23.8545 9.9931 23.8545H19.7206C19.7206 23.8545 20.1584 17.282 12.9709 14.4917C12.0672 13.7042 0.000976562 14.0989 0.000976562 14.0989Z" fill="#8B0000"/>
<path fill-rule="evenodd" clip-rule="evenodd" d="M39.6389 4.34249L39.5066 15.2766C39.5066 15.2766 38.8699 23.0791 29.7161 23.9191C29.2285 23.1544 29.5176 14.0816 29.5176 14.0816H19.7932C19.7932 14.0816 19.3555 7.49816 26.5407 4.70326C27.4444 3.91449 39.6389 4.34249 39.6389 4.34249Z" fill="#55A393"/>
<path fill-rule="evenodd" clip-rule="evenodd" d="M9.79492 53.2006L9.92723 42.2584C9.92723 42.2584 10.5639 34.4502 19.7178 33.6094C20.2054 34.3744 19.9163 43.4541 19.9163 43.4541H29.6407C29.6407 43.4541 30.0783 50.0422 22.8931 52.8391C21.9894 53.6285 9.79492 53.2006 9.79492 53.2006Z" fill="#ECB984"/>
<path fill-rule="evenodd" clip-rule="evenodd" d="M49.3001 43.4462L49.1678 32.504C49.1678 32.504 48.5311 24.696 39.3772 23.8555C38.8897 24.6206 39.1788 33.6997 39.1788 33.6997H29.4544C29.4544 33.6997 29.0167 40.2879 36.202 43.0847C37.1053 43.875 49.3001 43.4462 49.3001 43.4462Z" fill="#B62F2B"/>
</svg>
