<svg width="20" height="20" viewBox="0 0 20 20" fill="none" xmlns="http://www.w3.org/2000/svg">
<g clip-path="url(#clip0_333_1022)">
<path d="M19.3934 10C19.3934 4.47715 15.0953 0 9.79336 0C4.49142 0 0.193359 4.47715 0.193359 10C0.193359 14.9912 3.70392 19.1283 8.29336 19.8785V12.8906H5.85586V10H8.29336V7.79688C8.29336 5.29063 9.72661 3.90625 11.9194 3.90625C12.9694 3.90625 14.0684 4.10156 14.0684 4.10156V6.5625H12.8579C11.6654 6.5625 11.2934 7.3334 11.2934 8.125V10H13.9559L13.5302 12.8906H11.2934V19.8785C15.8828 19.1283 19.3934 14.9912 19.3934 10Z" fill="black"/>
</g>
<defs>
<clipPath id="clip0_333_1022">
<rect width="19.2" height="20" fill="white" transform="translate(0.193359)"/>
</clipPath>
</defs>
</svg>
