<svg width="20" height="20" viewBox="0 0 20 20" fill="none" xmlns="http://www.w3.org/2000/svg">
<g clip-path="url(#clip0_333_1026)">
<path d="M17.7729 0H1.41164C0.627891 0 -0.00585938 0.644531 -0.00585938 1.44141V18.5547C-0.00585938 19.3516 0.627891 20 1.41164 20H17.7729C18.5566 20 19.1941 19.3516 19.1941 18.5586V1.44141C19.1941 0.644531 18.5566 0 17.7729 0ZM5.69039 17.043H2.84039V7.49609H5.69039V17.043ZM4.26539 6.19531C3.35039 6.19531 2.61164 5.42578 2.61164 4.47656C2.61164 3.52734 3.35039 2.75781 4.26539 2.75781C5.17664 2.75781 5.91539 3.52734 5.91539 4.47656C5.91539 5.42188 5.17664 6.19531 4.26539 6.19531ZM16.3554 17.043H13.5091V12.4023C13.5091 11.2969 13.4904 9.87109 12.0279 9.87109C10.5466 9.87109 10.3216 11.0781 10.3216 12.3242V17.043H7.47914V7.49609H10.2091V8.80078H10.2466C10.6254 8.05078 11.5554 7.25781 12.9391 7.25781C15.8229 7.25781 16.3554 9.23438 16.3554 11.8047V17.043Z" fill="black"/>
</g>
<defs>
<clipPath id="clip0_333_1026">
<rect width="19.2" height="20" fill="white" transform="translate(-0.00585938)"/>
</clipPath>
</defs>
</svg>
