<svg width="20" height="20" viewBox="0 0 20 20" fill="none" xmlns="http://www.w3.org/2000/svg">
<g clip-path="url(#clip0_333_1024)">
<path d="M6.63388 18.1256C13.8774 18.1256 17.8404 11.8729 17.8404 6.45216C17.8404 6.27638 17.8366 6.09669 17.8291 5.92091C18.6 5.34016 19.2653 4.62082 19.7938 3.79669C19.0758 4.12944 18.3135 4.34676 17.5329 4.44122C18.3548 3.92803 18.9702 3.12184 19.265 2.17208C18.4918 2.64941 17.6462 2.98612 16.7645 3.16779C16.1704 2.51024 15.3849 2.07487 14.5295 1.92899C13.6741 1.7831 12.7963 1.93482 12.0319 2.36069C11.2676 2.78656 10.6592 3.46286 10.3008 4.28504C9.94247 5.10721 9.85409 6.02946 10.0494 6.90919C8.48374 6.82735 6.9521 6.4037 5.55374 5.66569C4.15537 4.92769 2.9215 3.89181 1.93212 2.62521C1.42927 3.52831 1.2754 4.59698 1.50177 5.61402C1.72815 6.63106 2.3178 7.52015 3.15088 8.1006C2.52545 8.07991 1.91373 7.90451 1.36625 7.58888V7.63966C1.36569 8.5874 1.68023 9.5061 2.2564 10.2396C2.83257 10.9731 3.63481 11.4761 4.52675 11.6631C3.94739 11.8282 3.33934 11.8523 2.74962 11.7334C3.00131 12.5485 3.49101 13.2614 4.15037 13.7726C4.80972 14.2838 5.60585 14.5678 6.42763 14.585C5.03249 15.7265 3.30909 16.3457 1.535 16.3428C1.22038 16.3423 0.906069 16.3222 0.59375 16.2826C2.39604 17.4871 4.49257 18.1268 6.63388 18.1256Z" fill="black"/>
</g>
<defs>
<clipPath id="clip0_333_1024">
<rect width="19.2" height="20" fill="white" transform="translate(0.59375)"/>
</clipPath>
</defs>
</svg>
